<?xml version="1.0" encoding="utf-8"?>
<!-- Generator: Adobe Illustrator 22.1.0, SVG Export Plug-In . SVG Version: 6.00 Build 0)  -->
<svg version="1.1" xmlns="http://www.w3.org/2000/svg" xmlns:xlink="http://www.w3.org/1999/xlink" x="0px" y="0px"
	 viewBox="0 0 543.8 621" style="enable-background:new 0 0 543.8 621;" xml:space="preserve">
<style type="text/css">
	.st0{fill:none;stroke:#4D4D4D;stroke-width:10;stroke-miterlimit:10;}
	.st1{fill:none;stroke:#00CCDD;stroke-width:2.5;stroke-miterlimit:10;}
	.st2{fill:#00CCDD;}
	.st3{display:none;fill:#333333;}
	.st4{fill:none;stroke:#EFEFEF;stroke-miterlimit:10;}
	.st4:hover{fill:#233;}
	.st5{fill:none;stroke:#00CCDD;stroke-miterlimit:10;}
	.st6{fill:#EFEFEF;}
	.st7{fill:#1B1464;}
	.st8{fill:none;stroke:#FFCC00;stroke-miterlimit:10;}
	.st9{display:none;fill:#1B1464;}
	.st10{font-family:'Georgia';}
	.st11{font-size:12px;}
	.st12{fill:#FFCC00;}
	.st13{display:none;}
	.st14{display:inline;}
	.st15{fill:none;stroke:#FFFFFF;stroke-miterlimit:10;}
	.st16{fill:none;stroke:#FFFFFF;stroke-miterlimit:10;stroke-dasharray:6.1739,6.1739;}
</style>
<g id="Layer_1">
</g>
<g id="Layer_2">
</g>
<g id="Layer_3">
</g>
<g id="Layer_4">
	<rect y="0" class="st9" width="543.8" height="621"/>
	<g>
		<rect x="9.7" y="10.5" class="st4" width="147.5" height="30"/>
		<rect x="66.7" y="156.5" class="st4" width="147.5" height="30"/>
		<polygon class="st4" points="143.7,91.5 83.5,91.5 23.3,91.5 10.3,76.5 23.3,61.5 83.5,61.5 143.7,61.5 157.2,76.5 		"/>
		<polygon class="st4" points="400.8,447.5 340.5,447.5 280.3,447.5 267.3,432.5 280.3,417.5 340.5,417.5 400.8,417.5 414.3,432.5 
					"/>
		<g>
			<path class="st6" d="M214.9,608.1l-0.2,1.9h-5v-0.2l3.9-5.7h-1.4c-0.2,0-0.3,0-0.4,0c-0.1,0-0.2,0-0.3,0c-0.2,0-0.4,0.2-0.7,0.5
				c-0.2,0.3-0.4,0.6-0.5,0.9H210l0.2-1.8h4.7v0.2l-3.9,5.7h1.5c0.2,0,0.5,0,0.8-0.1s0.5-0.1,0.5-0.2c0.2-0.2,0.4-0.4,0.5-0.7
				s0.3-0.5,0.4-0.7H214.9z M213.8,601.9l-1,1.2c-0.1,0.1-0.1,0.1-0.1,0.2c0,0-0.1,0-0.3,0c-0.1,0-0.2,0-0.2,0s-0.1-0.1-0.1-0.1
				l-1-1.3l0.2-0.1l1.2,0.9l1.2-0.9L213.8,601.9z"/>
			<path class="st6" d="M217.4,610h-2.1v-0.3c0.1,0,0.1,0,0.2,0c0.1,0,0.1,0,0.2,0c0.1,0,0.1-0.1,0.2-0.1c0-0.1,0.1-0.2,0.1-0.3
				v-2.7c0-0.1,0-0.2-0.1-0.3c0-0.1-0.1-0.1-0.2-0.2c-0.1,0-0.1-0.1-0.2-0.1c-0.1,0-0.2,0-0.3,0v-0.3l1.5-0.1l0.1,0.1v3.5
				c0,0.1,0,0.2,0.1,0.3s0.1,0.1,0.2,0.1c0.1,0,0.1,0,0.2,0.1c0.1,0,0.1,0,0.2,0V610z M216.9,603.9c0,0.2-0.1,0.3-0.2,0.4
				c-0.1,0.1-0.2,0.2-0.4,0.2c-0.1,0-0.3-0.1-0.4-0.2c-0.1-0.1-0.2-0.3-0.2-0.4c0-0.2,0.1-0.3,0.2-0.4c0.1-0.1,0.2-0.2,0.4-0.2
				c0.2,0,0.3,0.1,0.4,0.2C216.8,603.6,216.9,603.8,216.9,603.9z"/>
			<path class="st6" d="M220,610h-2.1v-0.3c0.1,0,0.1,0,0.2,0c0.1,0,0.1,0,0.2,0c0.1,0,0.1-0.1,0.2-0.1c0-0.1,0.1-0.2,0.1-0.3v-5
				c0-0.1,0-0.2-0.1-0.3c0-0.1-0.1-0.2-0.2-0.2c-0.1,0-0.2-0.1-0.3-0.1s-0.3,0-0.3-0.1v-0.3l1.6-0.1l0.1,0.1v5.9
				c0,0.1,0,0.2,0.1,0.3c0,0.1,0.1,0.1,0.2,0.2c0.1,0,0.1,0.1,0.2,0.1c0.1,0,0.1,0,0.2,0V610z"/>
			<path class="st6" d="M222.1,609.7c0,0.3,0,0.6-0.1,0.9c-0.1,0.3-0.2,0.5-0.4,0.7c-0.2,0.2-0.4,0.3-0.6,0.5
				c-0.2,0.1-0.4,0.2-0.7,0.2c-0.3,0-0.5-0.1-0.6-0.2c-0.1-0.1-0.2-0.2-0.2-0.4c0-0.1,0-0.2,0.1-0.3c0.1-0.1,0.2-0.1,0.3-0.1
				c0.1,0,0.2,0,0.2,0.1s0.1,0.1,0.2,0.1c0,0.1,0.1,0.1,0.1,0.2c0,0.1,0.1,0.2,0.1,0.2c0.2,0,0.4-0.1,0.5-0.4s0.1-0.7,0.1-1.3v-3.3
				c0-0.1,0-0.2-0.1-0.3c0-0.1-0.1-0.2-0.2-0.2c0,0-0.2-0.1-0.3-0.1s-0.3-0.1-0.4-0.1v-0.3l1.7-0.1l0.1,0.1V609.7z M222.2,603.9
				c0,0.2-0.1,0.3-0.2,0.4c-0.1,0.1-0.2,0.2-0.4,0.2c-0.1,0-0.3-0.1-0.4-0.2c-0.1-0.1-0.2-0.3-0.2-0.4c0-0.2,0.1-0.3,0.2-0.4
				c0.1-0.1,0.2-0.2,0.4-0.2c0.2,0,0.3,0.1,0.4,0.2C222.1,603.6,222.2,603.8,222.2,603.9z"/>
			<path class="st6" d="M227.3,609.9c-0.1,0-0.3,0.1-0.4,0.1c-0.1,0-0.2,0-0.4,0c-0.2,0-0.4-0.1-0.5-0.2c-0.1-0.1-0.2-0.3-0.3-0.5h0
				c-0.2,0.2-0.4,0.4-0.6,0.5c-0.2,0.1-0.5,0.2-0.8,0.2c-0.3,0-0.6-0.1-0.8-0.3c-0.2-0.2-0.3-0.5-0.3-0.8c0-0.2,0-0.3,0.1-0.4
				c0-0.1,0.1-0.3,0.2-0.4c0.1-0.1,0.2-0.2,0.3-0.2c0.1-0.1,0.2-0.1,0.3-0.2c0.1,0,0.4-0.1,0.8-0.3c0.4-0.1,0.7-0.2,0.8-0.3v-0.4
				c0,0,0-0.1,0-0.2c0-0.1-0.1-0.2-0.1-0.3c-0.1-0.1-0.1-0.2-0.2-0.3c-0.1-0.1-0.3-0.1-0.5-0.1c-0.1,0-0.3,0-0.4,0.1
				c-0.1,0-0.2,0.1-0.2,0.1c0,0.1,0,0.1,0,0.3s0,0.2,0,0.3c0,0.1,0,0.2-0.1,0.3c-0.1,0.1-0.2,0.1-0.4,0.1c-0.1,0-0.3-0.1-0.3-0.2
				c-0.1-0.1-0.1-0.2-0.1-0.3c0-0.1,0-0.3,0.1-0.4s0.2-0.2,0.4-0.3c0.1-0.1,0.3-0.2,0.5-0.2c0.2-0.1,0.4-0.1,0.5-0.1
				c0.2,0,0.5,0,0.6,0.1c0.2,0,0.3,0.1,0.5,0.2c0.2,0.1,0.3,0.3,0.3,0.4c0.1,0.2,0.1,0.4,0.1,0.7c0,0.4,0,0.8,0,1.1
				c0,0.3,0,0.7,0,1.1c0,0.1,0,0.2,0.1,0.3c0,0.1,0.1,0.1,0.2,0.2c0,0,0.1,0,0.2,0c0.1,0,0.2,0,0.3,0V609.9z M225.7,607.6
				c-0.3,0.1-0.5,0.1-0.7,0.2s-0.4,0.2-0.5,0.3c-0.1,0.1-0.3,0.2-0.3,0.4c-0.1,0.1-0.1,0.3-0.1,0.5c0,0.2,0.1,0.4,0.2,0.5
				c0.1,0.1,0.3,0.2,0.5,0.2c0.2,0,0.4-0.1,0.5-0.2c0.2-0.1,0.3-0.2,0.4-0.4L225.7,607.6z"/>
			<path class="st6" d="M232.3,610H231c-0.2-0.3-0.5-0.7-0.7-1.1c-0.3-0.4-0.5-0.7-0.8-1.1l-0.4,0.3v1c0,0.1,0,0.2,0.1,0.3
				c0,0.1,0.1,0.1,0.2,0.2c0.1,0,0.1,0.1,0.2,0.1s0.1,0,0.2,0v0.3h-2.1v-0.3c0.1,0,0.1,0,0.2,0c0.1,0,0.1,0,0.2,0
				c0.1,0,0.1-0.1,0.2-0.1c0-0.1,0.1-0.2,0.1-0.3v-5c0-0.1,0-0.2-0.1-0.3c0-0.1-0.1-0.2-0.2-0.2c-0.1,0-0.2-0.1-0.3-0.1
				c-0.1,0-0.2,0-0.3,0v-0.3l1.6-0.1l0.1,0.1v4.6c0.2-0.2,0.5-0.5,0.7-0.7c0.3-0.3,0.5-0.5,0.7-0.7c0,0,0-0.1,0.1-0.1s0-0.1,0-0.1
				c0-0.1-0.1-0.1-0.2-0.2c-0.1,0-0.2-0.1-0.4-0.1v-0.3h1.9v0.3c-0.2,0.1-0.5,0.2-0.7,0.3c-0.2,0.1-0.3,0.2-0.4,0.3
				c-0.1,0.1-0.2,0.2-0.3,0.3c-0.1,0.1-0.3,0.3-0.5,0.5c0.2,0.3,0.5,0.7,0.8,1.1s0.5,0.7,0.7,0.9c0.1,0.2,0.2,0.3,0.3,0.3
				c0.1,0.1,0.3,0.1,0.4,0.1V610z"/>
			<path class="st6" d="M234.1,609.8c0,0.2,0,0.4-0.1,0.6c-0.1,0.2-0.2,0.3-0.3,0.5c-0.1,0.1-0.3,0.3-0.4,0.4s-0.3,0.2-0.4,0.3
				l-0.2-0.3c0.1-0.1,0.3-0.2,0.4-0.3s0.2-0.2,0.3-0.3c0.1-0.1,0.2-0.2,0.2-0.3c0.1-0.1,0.1-0.3,0.1-0.4h-0.2
				c-0.2,0-0.3-0.1-0.5-0.2c-0.1-0.1-0.2-0.2-0.2-0.4c0-0.1,0.1-0.2,0.2-0.4c0.1-0.1,0.2-0.2,0.4-0.2c0.3,0,0.4,0.1,0.6,0.3
				C234,609.3,234.1,609.5,234.1,609.8z"/>
			<path class="st6" d="M243,604.1c-0.1,0-0.2,0-0.3,0.1c-0.1,0-0.2,0.1-0.3,0.1c-0.1,0.1-0.2,0.1-0.2,0.2c-0.1,0.1-0.1,0.2-0.2,0.3
				c-0.2,0.5-0.5,1.2-0.9,2.2c-0.4,1-0.8,2-1.2,3.1h-0.4c-0.4-1.1-0.8-2.2-1.2-3.3s-0.7-1.8-0.8-2.1c0-0.1-0.1-0.2-0.1-0.2
				c-0.1-0.1-0.1-0.1-0.2-0.2c-0.1,0-0.2-0.1-0.3-0.1c-0.1,0-0.2,0-0.3,0v-0.3h2.6v0.3c-0.2,0-0.4,0-0.6,0.1c-0.2,0-0.2,0.1-0.2,0.2
				c0,0,0,0.1,0,0.1c0,0,0,0.1,0,0.1c0.1,0.3,0.3,0.8,0.5,1.4c0.2,0.6,0.6,1.6,1,2.8c0.2-0.5,0.5-1.2,0.8-1.9s0.5-1.2,0.6-1.5
				c0.1-0.3,0.2-0.5,0.2-0.6c0-0.1,0-0.2,0-0.3c0-0.1,0-0.1-0.1-0.2c-0.1,0-0.1-0.1-0.2-0.1c-0.1,0-0.2-0.1-0.3-0.1s-0.2,0-0.3,0
				v-0.3h2.3V604.1z"/>
			<path class="st6" d="M245.2,610h-2.1v-0.3c0.1,0,0.1,0,0.2,0c0.1,0,0.1,0,0.2,0c0.1,0,0.1-0.1,0.2-0.1c0-0.1,0.1-0.2,0.1-0.3
				v-2.7c0-0.1,0-0.2-0.1-0.3c0-0.1-0.1-0.1-0.2-0.2c-0.1,0-0.1-0.1-0.2-0.1c-0.1,0-0.2,0-0.3,0v-0.3l1.5-0.1l0.1,0.1v3.5
				c0,0.1,0,0.2,0.1,0.3s0.1,0.1,0.2,0.1c0.1,0,0.1,0,0.2,0.1c0.1,0,0.1,0,0.2,0V610z M244.7,603.9c0,0.2-0.1,0.3-0.2,0.4
				c-0.1,0.1-0.2,0.2-0.4,0.2c-0.1,0-0.3-0.1-0.4-0.2c-0.1-0.1-0.2-0.3-0.2-0.4c0-0.2,0.1-0.3,0.2-0.4c0.1-0.1,0.2-0.2,0.4-0.2
				c0.2,0,0.3,0.1,0.4,0.2C244.6,603.6,244.7,603.8,244.7,603.9z"/>
			<path class="st6" d="M247.8,610h-2.1v-0.3c0.1,0,0.1,0,0.2,0c0.1,0,0.1,0,0.2,0c0.1,0,0.1-0.1,0.2-0.1c0-0.1,0.1-0.2,0.1-0.3v-5
				c0-0.1,0-0.2-0.1-0.3c0-0.1-0.1-0.2-0.2-0.2c-0.1,0-0.2-0.1-0.3-0.1s-0.3,0-0.3-0.1v-0.3l1.6-0.1l0.1,0.1v5.9
				c0,0.1,0,0.2,0.1,0.3c0,0.1,0.1,0.1,0.2,0.2c0.1,0,0.1,0.1,0.2,0.1c0.1,0,0.1,0,0.2,0V610z"/>
			<path class="st6" d="M252.9,610h-1.3c-0.2-0.3-0.5-0.7-0.7-1.1c-0.3-0.4-0.5-0.7-0.8-1.1l-0.4,0.3v1c0,0.1,0,0.2,0.1,0.3
				c0,0.1,0.1,0.1,0.2,0.2c0.1,0,0.1,0.1,0.2,0.1s0.1,0,0.2,0v0.3h-2.1v-0.3c0.1,0,0.1,0,0.2,0c0.1,0,0.1,0,0.2,0
				c0.1,0,0.1-0.1,0.2-0.1c0-0.1,0.1-0.2,0.1-0.3v-5c0-0.1,0-0.2-0.1-0.3c0-0.1-0.1-0.2-0.2-0.2c-0.1,0-0.2-0.1-0.3-0.1
				c-0.1,0-0.2,0-0.3,0v-0.3l1.6-0.1l0.1,0.1v4.6c0.2-0.2,0.5-0.5,0.7-0.7c0.3-0.3,0.5-0.5,0.7-0.7c0,0,0-0.1,0.1-0.1
				c0,0,0-0.1,0-0.1c0-0.1-0.1-0.1-0.2-0.2c-0.1,0-0.3-0.1-0.4-0.1v-0.3h1.9v0.3c-0.2,0.1-0.5,0.2-0.7,0.3c-0.2,0.1-0.3,0.2-0.4,0.3
				c-0.1,0.1-0.2,0.2-0.3,0.3s-0.3,0.3-0.5,0.5c0.2,0.3,0.5,0.7,0.8,1.1c0.3,0.4,0.5,0.7,0.7,0.9c0.1,0.2,0.2,0.3,0.3,0.3
				c0.1,0.1,0.3,0.1,0.4,0.1V610z"/>
			<path class="st6" d="M257.4,607.8c0,0.3,0,0.6-0.1,0.9c-0.1,0.3-0.2,0.5-0.4,0.7c-0.2,0.2-0.4,0.4-0.7,0.5
				c-0.3,0.1-0.6,0.2-0.9,0.2c-0.3,0-0.5-0.1-0.8-0.2c-0.3-0.1-0.5-0.3-0.7-0.5c-0.2-0.2-0.3-0.4-0.5-0.7c-0.1-0.3-0.2-0.6-0.2-1
				c0-0.7,0.2-1.2,0.6-1.7c0.4-0.4,0.9-0.6,1.6-0.6c0.6,0,1.1,0.2,1.5,0.6C257.2,606.6,257.4,607.1,257.4,607.8z M256.5,607.8
				c0-0.2,0-0.5-0.1-0.7c0-0.2-0.1-0.5-0.2-0.6c-0.1-0.2-0.2-0.3-0.4-0.4c-0.2-0.1-0.3-0.2-0.6-0.2c-0.2,0-0.4,0.1-0.6,0.2
				c-0.2,0.1-0.3,0.3-0.4,0.5c-0.1,0.2-0.2,0.4-0.2,0.6c0,0.2-0.1,0.4-0.1,0.7c0,0.3,0,0.5,0.1,0.8c0,0.2,0.1,0.5,0.2,0.6
				c0.1,0.2,0.2,0.3,0.4,0.4c0.2,0.1,0.3,0.2,0.6,0.2c0.4,0,0.7-0.2,0.9-0.5C256.3,608.9,256.5,608.4,256.5,607.8z"/>
			<path class="st6" d="M259.6,609.8c0,0.2,0,0.4-0.1,0.6c-0.1,0.2-0.2,0.3-0.3,0.5c-0.1,0.1-0.3,0.3-0.4,0.4s-0.3,0.2-0.4,0.3
				l-0.2-0.3c0.1-0.1,0.3-0.2,0.4-0.3s0.2-0.2,0.3-0.3c0.1-0.1,0.2-0.2,0.2-0.3c0.1-0.1,0.1-0.3,0.1-0.4h-0.2
				c-0.2,0-0.3-0.1-0.5-0.2s-0.2-0.2-0.2-0.4c0-0.1,0-0.2,0.1-0.4c0.1-0.1,0.2-0.2,0.4-0.2c0.3,0,0.4,0.1,0.6,0.3
				C259.5,609.3,259.6,609.5,259.6,609.8z"/>
			<path class="st2" d="M264.4,610.1c-0.4,0-0.7,0-0.9-0.1c-0.3-0.1-0.5-0.2-0.7-0.3l-0.3,0.3h-0.4l0.4-2.1h0.4c0,0.3,0,0.5,0.1,0.7
				s0.1,0.4,0.3,0.6c0.1,0.2,0.3,0.3,0.5,0.4c0.2,0.1,0.4,0.2,0.7,0.2c0.4,0,0.8-0.1,1-0.4c0.3-0.2,0.4-0.6,0.4-1
				c0-0.2-0.1-0.4-0.2-0.6c-0.1-0.2-0.3-0.3-0.5-0.4c-0.2-0.1-0.4-0.2-0.6-0.2c-0.2-0.1-0.4-0.2-0.6-0.3c-0.3-0.1-0.5-0.3-0.6-0.5
				c-0.2-0.2-0.2-0.5-0.2-0.8c0-0.3,0.1-0.5,0.2-0.8c0.1-0.2,0.3-0.4,0.5-0.6c0.2-0.2,0.4-0.3,0.7-0.4c0.3-0.1,0.6-0.2,0.8-0.2
				c0.3,0,0.5,0,0.7,0.1s0.5,0.2,0.7,0.3l0.2-0.3h0.4l-0.4,2.1h-0.4c0-0.2,0-0.5-0.1-0.7c0-0.2-0.1-0.4-0.2-0.6
				c-0.1-0.2-0.2-0.3-0.4-0.4c-0.2-0.1-0.4-0.1-0.7-0.1c-0.3,0-0.6,0.1-0.9,0.4c-0.2,0.2-0.4,0.5-0.4,0.9c0,0.2,0,0.4,0.1,0.6
				c0.1,0.2,0.2,0.3,0.4,0.4c0.2,0.1,0.4,0.2,0.6,0.3c0.2,0.1,0.4,0.1,0.6,0.2c0.3,0.2,0.6,0.3,0.8,0.6c0.2,0.2,0.3,0.5,0.3,0.8
				c0,0.3-0.1,0.6-0.2,0.9s-0.3,0.5-0.5,0.7c-0.2,0.2-0.5,0.3-0.8,0.4C265.1,610.1,264.8,610.1,264.4,610.1z"/>
			<path class="st2" d="M268.7,610.1c-0.3,0-0.5-0.1-0.6-0.2c-0.1-0.1-0.2-0.3-0.2-0.5c0-0.1,0-0.1,0-0.2c0-0.1,0-0.1,0-0.2l0.7-2.9
				h-0.8l0.1-0.4h0.8l0.3-1.3h0.8l-0.3,1.3h1.2l-0.1,0.4h-1.2l-0.6,2.4c0,0.1,0,0.2-0.1,0.3c0,0.1,0,0.2,0,0.3c0,0.2,0,0.3,0.1,0.4
				c0.1,0.1,0.2,0.1,0.4,0.1c0.1,0,0.2,0,0.3,0c0.1,0,0.2,0,0.3-0.1l-0.1,0.3c-0.2,0.1-0.4,0.1-0.6,0.2
				C269.1,610.1,268.9,610.1,268.7,610.1z"/>
			<path class="st2" d="M275,607.3c0,0.3-0.1,0.7-0.2,1c-0.1,0.3-0.3,0.6-0.5,0.9c-0.2,0.3-0.5,0.5-0.8,0.6
				c-0.3,0.2-0.7,0.2-1.1,0.2c-0.5,0-0.9-0.2-1.2-0.5c-0.3-0.3-0.5-0.7-0.5-1.3c0-0.4,0.1-0.8,0.2-1.1c0.1-0.3,0.3-0.6,0.5-0.9
				c0.2-0.3,0.5-0.5,0.8-0.6c0.3-0.2,0.7-0.2,1.1-0.2c0.5,0,0.9,0.2,1.2,0.5S275,606.8,275,607.3z M274.1,607.1
				c0-0.4-0.1-0.7-0.2-0.9c-0.1-0.2-0.4-0.3-0.6-0.3c-0.2,0-0.5,0.1-0.7,0.2s-0.4,0.4-0.6,0.7c-0.1,0.3-0.2,0.5-0.3,0.9
				c-0.1,0.3-0.1,0.6-0.1,0.9c0,0.4,0.1,0.7,0.2,1c0.1,0.2,0.4,0.3,0.7,0.3c0.3,0,0.5-0.1,0.7-0.2c0.2-0.2,0.4-0.4,0.5-0.6
				c0.1-0.2,0.2-0.5,0.3-0.8C274.1,607.8,274.1,607.5,274.1,607.1z"/>
			<path class="st2" d="M277.9,603.3l-1.2,5.3c0,0.1-0.1,0.2-0.1,0.3c0,0.1,0,0.2,0,0.3c0,0.2,0,0.3,0.1,0.3
				c0.1,0.1,0.2,0.1,0.4,0.1c0.1,0,0.1,0,0.3,0s0.2,0,0.3-0.1l-0.1,0.3c-0.3,0.1-0.5,0.2-0.6,0.2s-0.3,0.1-0.5,0.1
				c-0.2,0-0.4-0.1-0.5-0.2c-0.1-0.1-0.2-0.3-0.2-0.5c0-0.1,0-0.1,0-0.2s0-0.2,0.1-0.3l1.1-4.6c0-0.1,0-0.2,0-0.2s0-0.1,0-0.1
				c0-0.1,0-0.2-0.1-0.2c0-0.1-0.1-0.1-0.1-0.1c-0.1,0-0.1,0-0.2-0.1s-0.2,0-0.3,0l0.1-0.3L277.9,603.3L277.9,603.3z"/>
			<path class="st2" d="M282.9,609.5l-0.1,0.3c-0.3,0.1-0.5,0.2-0.6,0.2c-0.1,0-0.3,0.1-0.4,0.1c-0.2,0-0.4-0.1-0.5-0.2
				c-0.1-0.1-0.2-0.3-0.2-0.5c0-0.1,0-0.1,0-0.2c0-0.1,0-0.2,0.1-0.3l0.4-1.6c0-0.1,0.1-0.2,0.1-0.3s0-0.2,0-0.2
				c0-0.2,0-0.4-0.1-0.5s-0.2-0.2-0.4-0.2c-0.2,0-0.4,0.1-0.6,0.2s-0.4,0.3-0.6,0.5l-0.8,3.2h-0.8l0.7-2.9c0-0.1,0-0.2,0.1-0.3
				c0-0.1,0-0.2,0-0.3c0-0.2,0-0.3-0.1-0.3c-0.1-0.1-0.2-0.1-0.3-0.1c-0.1,0-0.1,0-0.2,0c-0.1,0-0.2,0-0.2,0.1l0.1-0.3
				c0.2-0.1,0.4-0.2,0.6-0.2s0.3-0.1,0.5-0.1c0.2,0,0.4,0.1,0.5,0.2s0.2,0.3,0.2,0.5h0c0.3-0.3,0.6-0.4,0.8-0.6
				c0.2-0.1,0.5-0.2,0.8-0.2c0.3,0,0.5,0.1,0.7,0.2c0.2,0.2,0.2,0.4,0.2,0.6c0,0.1,0,0.1,0,0.3c0,0.1,0,0.3-0.1,0.4l-0.4,1.4
				c0,0.1-0.1,0.2-0.1,0.3c0,0.1,0,0.2,0,0.3c0,0.2,0,0.3,0.1,0.3c0.1,0.1,0.2,0.1,0.4,0.1c0.1,0,0.1,0,0.2,0
				C282.8,609.5,282.8,609.5,282.9,609.5z"/>
			<path class="st2" d="M287.7,607.3c0,0.3-0.1,0.7-0.2,1c-0.1,0.3-0.3,0.6-0.5,0.9c-0.2,0.3-0.5,0.5-0.8,0.6
				c-0.3,0.2-0.7,0.2-1.1,0.2c-0.5,0-0.9-0.2-1.2-0.5c-0.3-0.3-0.5-0.7-0.5-1.3c0-0.4,0.1-0.8,0.2-1.1c0.1-0.3,0.3-0.6,0.5-0.9
				c0.2-0.3,0.5-0.5,0.8-0.6c0.3-0.2,0.7-0.2,1.1-0.2c0.5,0,0.9,0.2,1.2,0.5S287.7,606.8,287.7,607.3z M286.8,607.1
				c0-0.4-0.1-0.7-0.2-0.9c-0.1-0.2-0.4-0.3-0.6-0.3c-0.2,0-0.5,0.1-0.7,0.2s-0.4,0.4-0.6,0.7c-0.1,0.3-0.2,0.5-0.3,0.9
				c-0.1,0.3-0.1,0.6-0.1,0.9c0,0.4,0.1,0.7,0.2,1c0.1,0.2,0.4,0.3,0.7,0.3c0.3,0,0.5-0.1,0.7-0.2c0.2-0.2,0.4-0.4,0.5-0.6
				c0.1-0.2,0.2-0.5,0.3-0.8C286.8,607.8,286.8,607.5,286.8,607.1z"/>
			<path class="st2" d="M292.6,609.5l-0.1,0.3c-0.3,0.1-0.5,0.2-0.6,0.2c-0.2,0-0.3,0.1-0.4,0.1c-0.2,0-0.4-0.1-0.5-0.2
				c-0.1-0.1-0.2-0.3-0.2-0.5c0-0.1,0-0.1,0-0.2c0-0.1,0-0.2,0.1-0.3l0.5-1.9c0-0.1,0-0.2,0.1-0.3c0-0.1,0-0.2,0-0.3
				c0-0.2,0-0.3-0.1-0.3c-0.1-0.1-0.2-0.1-0.3-0.1c-0.1,0-0.1,0-0.3,0c-0.1,0-0.2,0-0.2,0.1l0.1-0.3c0.2-0.1,0.4-0.2,0.6-0.2
				s0.3-0.1,0.4-0.1c0.2,0,0.4,0.1,0.5,0.2c0.1,0.1,0.2,0.3,0.2,0.5c0,0.1,0,0.1,0,0.2c0,0.1,0,0.2-0.1,0.3l-0.5,1.9
				c0,0.1-0.1,0.2-0.1,0.3s0,0.2,0,0.3c0,0.2,0,0.3,0.1,0.3c0.1,0.1,0.2,0.1,0.4,0.1c0.1,0,0.1,0,0.2,0S292.5,609.5,292.6,609.5z
				 M292.9,603.9c0,0.2-0.1,0.3-0.2,0.4c-0.1,0.1-0.2,0.2-0.4,0.2c-0.1,0-0.3-0.1-0.4-0.2c-0.1-0.1-0.2-0.3-0.2-0.4
				c0-0.2,0.1-0.3,0.2-0.4c0.1-0.1,0.2-0.2,0.4-0.2c0.2,0,0.3,0.1,0.4,0.2C292.8,603.6,292.9,603.8,292.9,603.9z"/>
			<path class="st2" d="M296.9,605.7l-0.1,0.3l-3.1,3.7c0.1,0,0.2,0,0.3,0c0.1,0,0.3,0,0.4,0c0.1,0,0.2,0,0.4,0c0.1,0,0.3,0,0.5,0
				c0.1,0,0.2,0,0.3-0.1c0.1-0.1,0.1-0.2,0.2-0.3c0-0.1,0.1-0.2,0.2-0.4c0.1-0.2,0.2-0.3,0.2-0.4h0.3l-0.3,1.5h-3.4l0.1-0.3l3.1-3.6
				h-0.6c-0.3,0-0.5,0-0.6,0c-0.1,0-0.3,0-0.4,0.1c-0.1,0-0.2,0.1-0.3,0.3c-0.1,0.2-0.2,0.4-0.3,0.6h-0.3l0.3-1.3H296.9z"/>
			<path class="st2" d="M299.9,609.4L299.9,609.4c-0.1,0.1-0.2,0.1-0.3,0.2c-0.1,0.1-0.2,0.2-0.3,0.2c-0.1,0.1-0.3,0.2-0.4,0.2
				s-0.3,0.1-0.4,0.1c-0.4,0-0.8-0.2-1-0.5c-0.2-0.3-0.4-0.7-0.4-1.3c0-0.4,0.1-0.7,0.2-1.1c0.1-0.3,0.3-0.6,0.5-0.9
				c0.2-0.3,0.5-0.5,0.8-0.6c0.3-0.2,0.6-0.2,1-0.2c0.2,0,0.4,0,0.6,0.1s0.4,0.1,0.5,0.2l0.3-1.5c0-0.1,0-0.1,0-0.2c0,0,0-0.1,0-0.1
				c0-0.1,0-0.2-0.1-0.2c0-0.1-0.1-0.1-0.2-0.1c-0.1,0-0.2,0-0.3-0.1s-0.2,0-0.3,0l0.1-0.3l1.8-0.1l0,0.1l-1.2,5.3
				c0,0.1,0,0.2-0.1,0.3c0,0.1,0,0.2,0,0.3c0,0.2,0,0.3,0.1,0.3c0.1,0.1,0.2,0.1,0.4,0.1c0.1,0,0.1,0,0.2,0c0.1,0,0.2,0,0.2-0.1
				l-0.1,0.3c-0.2,0.1-0.5,0.2-0.6,0.2c-0.2,0-0.3,0.1-0.4,0.1c-0.2,0-0.4-0.1-0.5-0.2C300,609.8,299.9,609.6,299.9,609.4z
				 M300.5,606.6c0-0.1,0-0.2-0.1-0.2c0-0.1-0.1-0.2-0.1-0.2c-0.1-0.1-0.2-0.1-0.3-0.2c-0.1,0-0.2-0.1-0.4-0.1
				c-0.2,0-0.4,0.1-0.6,0.2s-0.4,0.3-0.5,0.6c-0.1,0.2-0.3,0.5-0.4,0.8s-0.1,0.6-0.1,1c0,0.2,0,0.3,0,0.5c0,0.1,0.1,0.3,0.1,0.4
				c0.1,0.1,0.1,0.2,0.2,0.3c0.1,0.1,0.2,0.1,0.4,0.1c0.2,0,0.3,0,0.5-0.1c0.2-0.1,0.4-0.3,0.6-0.5L300.5,606.6z"/>
			<path class="st2" d="M305.1,609.4L305.1,609.4c-0.1,0.1-0.2,0.1-0.3,0.2c-0.1,0.1-0.2,0.2-0.3,0.2c-0.1,0.1-0.2,0.1-0.4,0.2
				c-0.1,0.1-0.3,0.1-0.4,0.1c-0.4,0-0.8-0.2-1-0.5c-0.2-0.3-0.4-0.7-0.4-1.3c0-0.4,0.1-0.7,0.2-1.1c0.1-0.3,0.3-0.7,0.6-0.9
				c0.2-0.3,0.5-0.5,0.8-0.6c0.3-0.2,0.6-0.2,1-0.2c0.2,0,0.4,0,0.6,0.1s0.3,0.1,0.4,0.2l0.8-0.2l0.1,0.1l-0.7,2.8
				c0,0.1,0,0.2-0.1,0.3c0,0.1,0,0.2,0,0.3c0,0.2,0,0.3,0.1,0.3s0.2,0.1,0.4,0.1c0.1,0,0.1,0,0.2,0s0.2,0,0.2-0.1l-0.1,0.3
				c-0.3,0.1-0.5,0.2-0.6,0.2c-0.1,0-0.3,0.1-0.5,0.1c-0.2,0-0.4-0.1-0.5-0.2S305.1,609.6,305.1,609.4z M305.7,606.6
				c0-0.1,0-0.2,0-0.3c0-0.1-0.1-0.2-0.1-0.2c-0.1-0.1-0.1-0.1-0.2-0.2c-0.1,0-0.2-0.1-0.4-0.1c-0.2,0-0.4,0.1-0.6,0.2
				s-0.4,0.3-0.5,0.6c-0.2,0.2-0.3,0.5-0.4,0.8s-0.1,0.6-0.1,1c0,0.2,0,0.3,0,0.5s0.1,0.3,0.1,0.4c0.1,0.1,0.1,0.2,0.2,0.3
				s0.2,0.1,0.4,0.1c0.2,0,0.3,0,0.5-0.1c0.2-0.1,0.4-0.3,0.6-0.5L305.7,606.6z"/>
			<path class="st2" d="M311.7,606.4c0,0.4-0.1,0.9-0.2,1.4s-0.3,0.9-0.6,1.2c-0.2,0.4-0.5,0.6-0.8,0.9s-0.7,0.3-1.1,0.3
				c-0.4,0-0.7-0.1-0.9-0.3c-0.2-0.2-0.3-0.5-0.3-0.9c0-0.1,0-0.1,0-0.2s0-0.1,0-0.2l0.4-1.4c0-0.1,0.1-0.2,0.1-0.3
				c0-0.1,0-0.2,0-0.3c0-0.2,0-0.3-0.1-0.3c-0.1-0.1-0.2-0.1-0.3-0.1c-0.1,0-0.1,0-0.3,0s-0.2,0-0.2,0.1l0.1-0.3
				c0.2-0.1,0.4-0.2,0.6-0.2c0.2-0.1,0.3-0.1,0.4-0.1c0.2,0,0.4,0.1,0.5,0.2c0.1,0.1,0.2,0.3,0.2,0.5c0,0.1,0,0.1,0,0.2
				c0,0.1,0,0.2-0.1,0.3l-0.4,1.6c0,0.1-0.1,0.2-0.1,0.3c0,0.1,0,0.2,0,0.2c0,0.2,0,0.3,0.1,0.4c0,0.1,0.1,0.2,0.2,0.2
				c0.1,0,0.1,0.1,0.2,0.1c0.1,0,0.2,0,0.3,0c0.2,0,0.4-0.1,0.6-0.2c0.2-0.1,0.4-0.3,0.6-0.5c0.2-0.2,0.3-0.5,0.4-0.7
				s0.2-0.6,0.2-0.9c0-0.2,0-0.3-0.1-0.4c0-0.1-0.1-0.2-0.2-0.2c-0.1-0.1-0.1-0.2-0.2-0.2c0-0.1-0.1-0.2-0.1-0.3
				c0-0.2,0.1-0.3,0.2-0.4s0.2-0.1,0.4-0.1c0.2,0,0.3,0.1,0.4,0.2C311.7,605.9,311.7,606.1,311.7,606.4z"/>
			<path class="st2" d="M315.1,609.4L315.1,609.4c-0.1,0.1-0.2,0.1-0.3,0.2c-0.1,0.1-0.2,0.2-0.3,0.2c-0.1,0.1-0.2,0.1-0.4,0.2
				c-0.1,0.1-0.3,0.1-0.4,0.1c-0.4,0-0.8-0.2-1-0.5c-0.2-0.3-0.4-0.7-0.4-1.3c0-0.4,0.1-0.7,0.2-1.1c0.1-0.3,0.3-0.7,0.6-0.9
				c0.2-0.3,0.5-0.5,0.8-0.6c0.3-0.2,0.6-0.2,1-0.2c0.2,0,0.4,0,0.6,0.1c0.2,0.1,0.3,0.1,0.4,0.2l0.8-0.2l0.1,0.1l-0.7,2.8
				c0,0.1,0,0.2-0.1,0.3s0,0.2,0,0.3c0,0.2,0,0.3,0.1,0.3s0.2,0.1,0.4,0.1c0.1,0,0.1,0,0.2,0c0.1,0,0.2,0,0.2-0.1l-0.1,0.3
				c-0.3,0.1-0.5,0.2-0.6,0.2c-0.1,0-0.3,0.1-0.5,0.1c-0.2,0-0.4-0.1-0.5-0.2S315.1,609.6,315.1,609.4z M315.7,606.6
				c0-0.1,0-0.2,0-0.3c0-0.1-0.1-0.2-0.1-0.2c-0.1-0.1-0.1-0.1-0.2-0.2s-0.2-0.1-0.4-0.1c-0.2,0-0.4,0.1-0.6,0.2
				c-0.2,0.1-0.4,0.3-0.5,0.6c-0.2,0.2-0.3,0.5-0.4,0.8c-0.1,0.3-0.1,0.6-0.1,1c0,0.2,0,0.3,0,0.5c0,0.1,0.1,0.3,0.1,0.4
				c0.1,0.1,0.1,0.2,0.2,0.3s0.2,0.1,0.4,0.1c0.2,0,0.3,0,0.5-0.1s0.4-0.3,0.6-0.5L315.7,606.6z"/>
			<path class="st2" d="M318.8,610.1c-0.4,0-0.8-0.1-1.1-0.2c-0.3-0.2-0.4-0.4-0.4-0.6c0-0.1,0-0.2,0.1-0.3c0.1-0.1,0.2-0.2,0.3-0.2
				c0.1,0,0.2,0,0.3,0.1c0.1,0.1,0.1,0.1,0.2,0.2c0,0.1,0.1,0.2,0.1,0.3c0,0.1,0.1,0.2,0.1,0.3c0,0.1,0.1,0.1,0.2,0.1
				c0.1,0,0.2,0.1,0.3,0.1c0.3,0,0.6-0.1,0.7-0.2c0.2-0.2,0.2-0.4,0.2-0.6c0-0.2-0.1-0.4-0.2-0.5s-0.4-0.2-0.7-0.3
				c-0.1,0-0.2-0.1-0.4-0.2c-0.1-0.1-0.3-0.1-0.4-0.2c-0.1-0.1-0.2-0.2-0.3-0.3s-0.1-0.3-0.1-0.5c0-0.4,0.2-0.7,0.5-1
				s0.7-0.4,1.2-0.4c0.1,0,0.2,0,0.4,0s0.3,0,0.4,0.1c0.1,0,0.3,0.1,0.4,0.2c0.1,0.1,0.1,0.2,0.1,0.4c0,0.1,0,0.2-0.1,0.3
				c-0.1,0.1-0.2,0.1-0.3,0.1c-0.1,0-0.2,0-0.3-0.1c-0.1,0-0.1-0.1-0.2-0.2s-0.1-0.2-0.1-0.3s-0.1-0.2-0.1-0.3c-0.1,0-0.1,0-0.1,0
				c0,0-0.1,0-0.2,0c-0.3,0-0.5,0.1-0.7,0.2c-0.1,0.2-0.2,0.3-0.2,0.5c0,0.2,0.1,0.4,0.2,0.5c0.1,0.1,0.4,0.2,0.7,0.3
				c0.4,0.1,0.7,0.3,0.9,0.5c0.2,0.2,0.3,0.4,0.3,0.7c0,0.4-0.2,0.8-0.5,1.1S319.3,610.1,318.8,610.1z M321.3,603.4l-1.3,1.5
				c-0.1,0.1-0.1,0.1-0.2,0.2c0,0-0.1,0-0.3,0c-0.1,0-0.2,0-0.2,0c0,0-0.1-0.1-0.1-0.1l-0.8-1.5l0.2-0.1l1,1.2l1.4-1.2L321.3,603.4z
				"/>
			<path class="st2" d="M322.4,610.1c-0.3,0-0.5-0.1-0.6-0.2c-0.1-0.1-0.2-0.3-0.2-0.5c0-0.1,0-0.1,0-0.2c0-0.1,0-0.1,0-0.2l0.7-2.9
				h-0.8l0.1-0.4h0.8l0.3-1.3h0.8l-0.3,1.3h1.2l-0.1,0.4h-1.2l-0.6,2.4c0,0.1,0,0.2-0.1,0.3c0,0.1,0,0.2,0,0.3c0,0.2,0,0.3,0.1,0.4
				c0.1,0.1,0.2,0.1,0.4,0.1c0.1,0,0.2,0,0.3,0c0.1,0,0.2,0,0.3-0.1l-0.1,0.3c-0.2,0.1-0.4,0.1-0.6,0.2
				C322.8,610.1,322.6,610.1,322.4,610.1z"/>
			<path class="st2" d="M328.7,606.4c0,0.4-0.1,0.9-0.2,1.4s-0.3,0.9-0.6,1.2c-0.2,0.4-0.5,0.6-0.8,0.9s-0.7,0.3-1.1,0.3
				c-0.4,0-0.7-0.1-0.9-0.3c-0.2-0.2-0.3-0.5-0.3-0.9c0-0.1,0-0.1,0-0.2c0-0.1,0-0.1,0-0.2l0.4-1.4c0-0.1,0.1-0.2,0.1-0.3
				c0-0.1,0-0.2,0-0.3c0-0.2,0-0.3-0.1-0.3c-0.1-0.1-0.2-0.1-0.3-0.1c-0.1,0-0.1,0-0.3,0s-0.2,0-0.2,0.1l0.1-0.3
				c0.2-0.1,0.4-0.2,0.6-0.2c0.2-0.1,0.3-0.1,0.4-0.1c0.2,0,0.4,0.1,0.5,0.2s0.2,0.3,0.2,0.5c0,0.1,0,0.1,0,0.2c0,0.1,0,0.2-0.1,0.3
				l-0.4,1.6c0,0.1-0.1,0.2-0.1,0.3c0,0.1,0,0.2,0,0.2c0,0.2,0,0.3,0.1,0.4c0,0.1,0.1,0.2,0.2,0.2c0.1,0,0.1,0.1,0.2,0.1
				c0.1,0,0.2,0,0.3,0c0.2,0,0.4-0.1,0.6-0.2s0.4-0.3,0.6-0.5c0.2-0.2,0.3-0.5,0.4-0.7s0.2-0.6,0.2-0.9c0-0.2,0-0.3-0.1-0.4
				c0-0.1-0.1-0.2-0.2-0.2c-0.1-0.1-0.1-0.2-0.2-0.2c0-0.1-0.1-0.2-0.1-0.3c0-0.2,0.1-0.3,0.2-0.4s0.2-0.1,0.4-0.1
				c0.2,0,0.3,0.1,0.4,0.2S328.7,606.1,328.7,606.4z"/>
			<path class="st2" d="M333.5,607.3c0,0.3-0.1,0.7-0.2,1c-0.1,0.3-0.3,0.6-0.5,0.9c-0.2,0.3-0.5,0.5-0.8,0.6s-0.7,0.2-1.1,0.2
				c-0.5,0-0.9-0.2-1.2-0.5s-0.5-0.7-0.5-1.3c0-0.4,0.1-0.8,0.2-1.1c0.1-0.3,0.3-0.6,0.5-0.9c0.2-0.3,0.5-0.5,0.8-0.6
				c0.3-0.2,0.7-0.2,1.1-0.2c0.5,0,0.9,0.2,1.2,0.5C333.4,606.4,333.5,606.8,333.5,607.3z M332.6,607.1c0-0.4-0.1-0.7-0.2-0.9
				c-0.1-0.2-0.4-0.3-0.6-0.3c-0.2,0-0.5,0.1-0.7,0.2c-0.2,0.1-0.4,0.4-0.6,0.7c-0.1,0.3-0.2,0.5-0.3,0.9c-0.1,0.3-0.1,0.6-0.1,0.9
				c0,0.4,0.1,0.7,0.2,1c0.1,0.2,0.4,0.3,0.7,0.3c0.3,0,0.5-0.1,0.7-0.2c0.2-0.2,0.4-0.4,0.5-0.6c0.1-0.2,0.2-0.5,0.3-0.8
				C332.6,607.8,332.6,607.5,332.6,607.1z"/>
			<path class="st6" d="M335.8,609.5c0,0.2-0.1,0.3-0.2,0.4c-0.1,0.1-0.3,0.2-0.4,0.2s-0.3-0.1-0.4-0.2c-0.1-0.1-0.2-0.3-0.2-0.4
				c0-0.2,0.1-0.3,0.2-0.4c0.1-0.1,0.3-0.2,0.4-0.2s0.3,0.1,0.4,0.2C335.7,609.2,335.8,609.3,335.8,609.5z M336.5,606.2
				c0,0.2-0.1,0.3-0.2,0.4c-0.1,0.1-0.3,0.2-0.4,0.2s-0.3-0.1-0.4-0.2c-0.1-0.1-0.2-0.3-0.2-0.4c0-0.2,0.1-0.3,0.2-0.4
				s0.3-0.2,0.4-0.2s0.3,0.1,0.4,0.2S336.5,606.1,336.5,606.2z"/>
			<path class="st6" d="M346,606.2c0,0.6-0.1,1.1-0.3,1.6c-0.2,0.5-0.5,0.9-0.8,1.3c-0.3,0.4-0.7,0.6-1.2,0.8
				c-0.4,0.2-0.9,0.3-1.4,0.3c-0.7,0-1.3-0.2-1.8-0.7c-0.4-0.5-0.7-1.1-0.7-1.8c0-0.6,0.1-1.1,0.3-1.6c0.2-0.5,0.5-0.9,0.8-1.3
				c0.3-0.4,0.7-0.6,1.2-0.9s0.9-0.3,1.4-0.3c0.7,0,1.3,0.2,1.7,0.7C345.7,604.8,346,605.4,346,606.2z M344.3,608.5
				c0.2-0.4,0.4-0.8,0.5-1.2s0.2-0.9,0.2-1.4c0-0.6-0.1-1.1-0.4-1.4s-0.6-0.5-1.1-0.5c-0.4,0-0.7,0.1-1,0.3s-0.6,0.5-0.8,1
				c-0.2,0.4-0.4,0.8-0.5,1.2c-0.1,0.5-0.2,0.9-0.2,1.3c0,0.6,0.1,1.1,0.4,1.4c0.3,0.3,0.6,0.5,1.1,0.5c0.4,0,0.8-0.1,1.1-0.4
				S344.1,608.9,344.3,608.5z"/>
			<path class="st6" d="M350.7,607.2c0,0.4-0.1,0.8-0.2,1.1s-0.3,0.7-0.6,0.9c-0.2,0.3-0.5,0.5-0.8,0.6s-0.6,0.2-0.9,0.2
				c-0.3,0-0.5,0-0.7-0.1c-0.2,0-0.4-0.1-0.5-0.2c-0.1-0.1-0.3-0.2-0.3-0.3c-0.1-0.1-0.2-0.2-0.2-0.3l1.1-5c0-0.1,0-0.1,0-0.2
				c0,0,0-0.1,0-0.1c0-0.1,0-0.2-0.1-0.2c0-0.1-0.1-0.1-0.1-0.1c-0.1,0-0.1,0-0.2-0.1s-0.2,0-0.3,0l0.1-0.3l1.6-0.1l0,0.1l-0.7,2.9
				h0c0.3-0.2,0.5-0.4,0.7-0.5c0.2-0.1,0.4-0.1,0.6-0.1c0.4,0,0.8,0.2,1.1,0.5C350.6,606.3,350.7,606.7,350.7,607.2z M349.8,607.3
				c0-0.2,0-0.3,0-0.5c0-0.2-0.1-0.3-0.1-0.4c-0.1-0.1-0.2-0.2-0.3-0.3s-0.3-0.1-0.4-0.1c-0.1,0-0.2,0-0.3,0.1
				c-0.1,0-0.2,0.1-0.3,0.1c-0.1,0.1-0.2,0.1-0.3,0.2c-0.1,0.1-0.2,0.1-0.2,0.2l-0.6,2.6c0,0.1,0,0.1,0.1,0.2c0,0.1,0.1,0.1,0.2,0.2
				c0.1,0.1,0.2,0.1,0.3,0.2c0.1,0,0.2,0.1,0.3,0.1c0.2,0,0.4-0.1,0.7-0.2c0.2-0.1,0.4-0.3,0.5-0.6c0.2-0.3,0.3-0.5,0.4-0.8
				C349.8,607.9,349.8,607.6,349.8,607.3z"/>
			<path class="st6" d="M355.2,606.3c0,0.1,0,0.2,0,0.3c0,0.1-0.1,0.2-0.1,0.2c-0.1,0.1-0.1,0.1-0.2,0.2c-0.1,0-0.2,0.1-0.3,0.1
				c-0.2,0-0.3,0-0.4-0.1c-0.1-0.1-0.1-0.2-0.1-0.3c0-0.1,0-0.2,0.1-0.3c0-0.1,0.1-0.2,0.1-0.3c0,0-0.1,0-0.2,0
				c-0.1,0-0.2,0.1-0.3,0.1s-0.2,0.1-0.4,0.3c-0.1,0.1-0.3,0.3-0.5,0.4l-0.7,3.1h-0.8l0.6-2.9c0-0.1,0-0.2,0.1-0.3
				c0-0.1,0-0.2,0-0.3c0-0.2,0-0.3-0.1-0.3s-0.2-0.1-0.3-0.1c-0.1,0-0.1,0-0.2,0c-0.1,0-0.2,0-0.2,0.1l0.1-0.3
				c0.2-0.1,0.4-0.2,0.6-0.2s0.3-0.1,0.5-0.1c0.2,0,0.4,0.1,0.5,0.2c0.1,0.1,0.1,0.3,0.1,0.6h0c0.3-0.3,0.6-0.5,0.8-0.6
				s0.4-0.2,0.6-0.2c0.1,0,0.2,0,0.3,0s0.2,0.1,0.2,0.1c0.1,0.1,0.1,0.1,0.1,0.2C355.2,606,355.2,606.1,355.2,606.3z"/>
			<path class="st6" d="M358.2,609.4L358.2,609.4c-0.1,0.1-0.2,0.1-0.3,0.2c-0.1,0.1-0.2,0.2-0.3,0.2c-0.1,0.1-0.2,0.1-0.4,0.2
				c-0.1,0.1-0.3,0.1-0.4,0.1c-0.4,0-0.8-0.2-1-0.5c-0.2-0.3-0.4-0.7-0.4-1.3c0-0.4,0.1-0.7,0.2-1.1c0.1-0.3,0.3-0.7,0.6-0.9
				c0.2-0.3,0.5-0.5,0.8-0.6c0.3-0.2,0.6-0.2,1-0.2c0.2,0,0.4,0,0.6,0.1c0.2,0.1,0.3,0.1,0.4,0.2l0.8-0.2l0.1,0.1l-0.7,2.8
				c0,0.1,0,0.2-0.1,0.3s0,0.2,0,0.3c0,0.2,0,0.3,0.1,0.3s0.2,0.1,0.4,0.1c0.1,0,0.1,0,0.2,0c0.1,0,0.2,0,0.2-0.1l-0.1,0.3
				c-0.3,0.1-0.5,0.2-0.6,0.2c-0.1,0-0.3,0.1-0.5,0.1c-0.2,0-0.4-0.1-0.5-0.2S358.2,609.6,358.2,609.4z M358.9,606.6
				c0-0.1,0-0.2,0-0.3c0-0.1-0.1-0.2-0.1-0.2c-0.1-0.1-0.1-0.1-0.2-0.2s-0.2-0.1-0.4-0.1c-0.2,0-0.4,0.1-0.6,0.2
				c-0.2,0.1-0.4,0.3-0.5,0.6c-0.2,0.2-0.3,0.5-0.4,0.8c-0.1,0.3-0.1,0.6-0.1,1c0,0.2,0,0.3,0,0.5c0,0.1,0.1,0.3,0.1,0.4
				c0.1,0.1,0.1,0.2,0.2,0.3s0.2,0.1,0.4,0.1c0.2,0,0.3,0,0.5-0.1s0.4-0.3,0.6-0.5L358.9,606.6z"/>
			<path class="st6" d="M363.4,609.4L363.4,609.4c-0.1,0.1-0.2,0.1-0.3,0.2c-0.1,0.1-0.2,0.2-0.3,0.2c-0.1,0.1-0.3,0.2-0.4,0.2
				c-0.1,0-0.3,0.1-0.4,0.1c-0.4,0-0.8-0.2-1-0.5c-0.2-0.3-0.4-0.7-0.4-1.3c0-0.4,0.1-0.7,0.2-1.1c0.1-0.3,0.3-0.6,0.5-0.9
				c0.2-0.3,0.5-0.5,0.8-0.6c0.3-0.2,0.6-0.2,1-0.2c0.2,0,0.4,0,0.6,0.1s0.4,0.1,0.5,0.2l0.3-1.5c0-0.1,0-0.1,0-0.2c0,0,0-0.1,0-0.1
				c0-0.1,0-0.2-0.1-0.2c0-0.1-0.1-0.1-0.2-0.1c-0.1,0-0.2,0-0.3-0.1s-0.2,0-0.3,0l0.1-0.3l1.8-0.1l0,0.1l-1.2,5.3
				c0,0.1,0,0.2-0.1,0.3c0,0.1,0,0.2,0,0.3c0,0.2,0,0.3,0.1,0.3c0.1,0.1,0.2,0.1,0.4,0.1c0.1,0,0.1,0,0.2,0c0.1,0,0.2,0,0.2-0.1
				l-0.1,0.3c-0.2,0.1-0.5,0.2-0.6,0.2s-0.3,0.1-0.4,0.1c-0.2,0-0.4-0.1-0.5-0.2C363.5,609.8,363.4,609.6,363.4,609.4z M364.1,606.6
				c0-0.1,0-0.2-0.1-0.2c0-0.1-0.1-0.2-0.1-0.2c-0.1-0.1-0.2-0.1-0.3-0.2c-0.1,0-0.2-0.1-0.4-0.1c-0.2,0-0.4,0.1-0.6,0.2
				c-0.2,0.1-0.4,0.3-0.5,0.6c-0.1,0.2-0.3,0.5-0.4,0.8s-0.1,0.6-0.1,1c0,0.2,0,0.3,0,0.5c0,0.1,0.1,0.3,0.1,0.4
				c0.1,0.1,0.1,0.2,0.2,0.3c0.1,0.1,0.2,0.1,0.4,0.1c0.2,0,0.3,0,0.5-0.1c0.2-0.1,0.4-0.3,0.6-0.5L364.1,606.6z"/>
			<path class="st6" d="M368.6,609.4L368.6,609.4c-0.1,0.1-0.2,0.1-0.3,0.2c-0.1,0.1-0.2,0.2-0.3,0.2c-0.1,0.1-0.2,0.1-0.4,0.2
				c-0.1,0.1-0.3,0.1-0.4,0.1c-0.4,0-0.8-0.2-1-0.5c-0.2-0.3-0.4-0.7-0.4-1.3c0-0.4,0.1-0.7,0.2-1.1c0.1-0.3,0.3-0.7,0.6-0.9
				c0.2-0.3,0.5-0.5,0.8-0.6c0.3-0.2,0.6-0.2,1-0.2c0.2,0,0.4,0,0.6,0.1s0.3,0.1,0.4,0.2l0.8-0.2l0.1,0.1l-0.7,2.8
				c0,0.1,0,0.2-0.1,0.3c0,0.1,0,0.2,0,0.3c0,0.2,0,0.3,0.1,0.3s0.2,0.1,0.4,0.1c0.1,0,0.1,0,0.2,0c0.1,0,0.2,0,0.2-0.1l-0.1,0.3
				c-0.3,0.1-0.5,0.2-0.6,0.2c-0.1,0-0.3,0.1-0.5,0.1c-0.2,0-0.4-0.1-0.5-0.2C368.6,609.8,368.6,609.6,368.6,609.4z M369.2,606.6
				c0-0.1,0-0.2,0-0.3c0-0.1-0.1-0.2-0.1-0.2c-0.1-0.1-0.1-0.1-0.2-0.2c-0.1,0-0.2-0.1-0.4-0.1c-0.2,0-0.4,0.1-0.6,0.2
				s-0.4,0.3-0.5,0.6c-0.2,0.2-0.3,0.5-0.4,0.8s-0.1,0.6-0.1,1c0,0.2,0,0.3,0,0.5s0.1,0.3,0.1,0.4c0.1,0.1,0.1,0.2,0.2,0.3
				c0.1,0.1,0.2,0.1,0.4,0.1c0.2,0,0.3,0,0.5-0.1s0.4-0.3,0.6-0.5L369.2,606.6z"/>
			<path class="st6" d="M374.2,610.1c-0.3,0-0.5-0.1-0.6-0.2c-0.1-0.1-0.2-0.3-0.2-0.5c0-0.1,0-0.1,0-0.2c0-0.1,0-0.1,0-0.2l0.7-2.9
				h-0.8l0.1-0.4h0.8l0.3-1.3h0.8l-0.3,1.3h1.2l-0.1,0.4h-1.2l-0.6,2.4c0,0.1,0,0.2-0.1,0.3c0,0.1,0,0.2,0,0.3c0,0.2,0,0.3,0.1,0.4
				c0.1,0.1,0.2,0.1,0.4,0.1c0.1,0,0.2,0,0.3,0c0.1,0,0.2,0,0.3-0.1l-0.1,0.3c-0.2,0.1-0.4,0.1-0.6,0.2
				C374.6,610.1,374.4,610.1,374.2,610.1z"/>
			<path class="st6" d="M380,606.5c0,0.3-0.1,0.6-0.3,0.8s-0.5,0.4-0.8,0.5c-0.3,0.1-0.5,0.2-0.8,0.2c-0.3,0.1-0.6,0.1-0.9,0.2
				c0,0.5,0.1,0.8,0.3,1.1c0.2,0.2,0.4,0.4,0.8,0.4c0.3,0,0.6-0.1,0.8-0.2s0.4-0.4,0.7-0.7l0.3,0.2c-0.2,0.4-0.5,0.6-0.9,0.9
				c-0.4,0.2-0.7,0.3-1.1,0.3c-0.5,0-0.9-0.1-1.2-0.4c-0.3-0.3-0.4-0.7-0.4-1.2c0-0.4,0.1-0.7,0.2-1.1c0.1-0.3,0.3-0.6,0.5-0.9
				c0.2-0.3,0.5-0.5,0.8-0.7c0.3-0.2,0.7-0.3,1-0.3c0.4,0,0.7,0.1,0.9,0.3C379.9,606,380,606.2,380,606.5z M379.2,606.4
				c0-0.1,0-0.2,0-0.3c0-0.1-0.1-0.1-0.1-0.1c-0.1,0-0.1-0.1-0.2-0.1s-0.1,0-0.2,0c-0.4,0-0.7,0.2-1,0.6c-0.3,0.4-0.5,0.9-0.6,1.4
				c0.2,0,0.4-0.1,0.7-0.1c0.3-0.1,0.5-0.1,0.6-0.2c0.2-0.1,0.4-0.3,0.5-0.5C379.2,606.9,379.2,606.6,379.2,606.4z"/>
			<path class="st6" d="M384.9,606.1c0,0.1-0.1,0.2-0.2,0.4c-0.1,0.1-0.2,0.2-0.4,0.2c-0.1,0-0.2,0-0.3,0c-0.1,0-0.2-0.1-0.3-0.1
				c-0.2,0.1-0.3,0.2-0.5,0.3c-0.2,0.1-0.4,0.3-0.6,0.5c0.2,0.4,0.3,0.8,0.4,1.1s0.2,0.5,0.3,0.7c0.1,0.2,0.2,0.4,0.3,0.5
				c0.1,0.1,0.3,0.1,0.4,0.1c0.1,0,0.2,0,0.3,0c0.1,0,0.2,0,0.3-0.1l-0.1,0.3c-0.3,0.1-0.5,0.2-0.6,0.2c-0.2,0-0.3,0.1-0.5,0.1
				c-0.2,0-0.3-0.1-0.5-0.2c-0.1-0.1-0.3-0.3-0.4-0.6c-0.1-0.3-0.2-0.5-0.3-0.8c-0.1-0.3-0.2-0.5-0.3-0.7l-0.5,0.4l-0.4,1.7h-0.8
				l1.3-5.7c0-0.1,0-0.2,0-0.2c0,0,0-0.1,0-0.1c0-0.1,0-0.2-0.1-0.2c0-0.1-0.1-0.1-0.1-0.1c-0.1,0-0.1,0-0.2-0.1c-0.1,0-0.2,0-0.3,0
				l0.1-0.3l1.6-0.1l0,0.1l-1.1,4.6h0c0.3-0.4,0.6-0.7,0.9-0.9c0.3-0.3,0.6-0.5,0.9-0.8c0.2-0.2,0.4-0.3,0.5-0.4
				c0.1-0.1,0.3-0.1,0.4-0.1c0.1,0,0.3,0,0.4,0.1C384.9,605.8,384.9,605.9,384.9,606.1z"/>
			<path class="st6" d="M386.5,610.1c-0.4,0-0.8-0.1-1.1-0.2c-0.3-0.2-0.4-0.4-0.4-0.6c0-0.1,0-0.2,0.1-0.3c0.1-0.1,0.2-0.2,0.3-0.2
				c0.1,0,0.2,0,0.3,0.1c0.1,0.1,0.1,0.1,0.2,0.2c0,0.1,0.1,0.2,0.1,0.3s0.1,0.2,0.1,0.3c0,0.1,0.1,0.1,0.2,0.1
				c0.1,0,0.2,0.1,0.3,0.1c0.3,0,0.6-0.1,0.7-0.2c0.2-0.2,0.2-0.4,0.2-0.6c0-0.2-0.1-0.4-0.2-0.5s-0.4-0.2-0.7-0.3
				c-0.1,0-0.2-0.1-0.4-0.2c-0.1-0.1-0.3-0.1-0.4-0.2c-0.1-0.1-0.2-0.2-0.3-0.3s-0.1-0.3-0.1-0.5c0-0.4,0.2-0.7,0.5-1
				c0.3-0.3,0.7-0.4,1.2-0.4c0.1,0,0.2,0,0.4,0c0.1,0,0.3,0,0.4,0.1c0.1,0,0.3,0.1,0.4,0.2c0.1,0.1,0.1,0.2,0.1,0.4
				c0,0.1,0,0.2-0.1,0.3c-0.1,0.1-0.2,0.1-0.3,0.1c-0.1,0-0.2,0-0.3-0.1c-0.1,0-0.1-0.1-0.2-0.2s-0.1-0.2-0.1-0.3s-0.1-0.2-0.1-0.3
				c-0.1,0-0.1,0-0.1,0s-0.1,0-0.2,0c-0.3,0-0.5,0.1-0.7,0.2c-0.1,0.2-0.2,0.3-0.2,0.5c0,0.2,0.1,0.4,0.2,0.5s0.4,0.2,0.7,0.3
				c0.4,0.1,0.7,0.3,0.9,0.5c0.2,0.2,0.3,0.4,0.3,0.7c0,0.4-0.2,0.8-0.5,1.1C387.5,610,387.1,610.1,386.5,610.1z"/>
			<path class="st6" d="M390.2,610.1c-0.3,0-0.5-0.1-0.6-0.2c-0.1-0.1-0.2-0.3-0.2-0.5c0-0.1,0-0.1,0-0.2c0-0.1,0-0.1,0-0.2l0.7-2.9
				h-0.8l0.1-0.4h0.8l0.3-1.3h0.8l-0.3,1.3h1.2l-0.1,0.4h-1.2l-0.6,2.4c0,0.1,0,0.2-0.1,0.3c0,0.1,0,0.2,0,0.3c0,0.2,0,0.3,0.1,0.4
				c0.1,0.1,0.2,0.1,0.4,0.1c0.1,0,0.2,0,0.3,0c0.1,0,0.2,0,0.3-0.1l-0.1,0.3c-0.2,0.1-0.4,0.1-0.6,0.2
				C390.6,610.1,390.4,610.1,390.2,610.1z"/>
			<path class="st6" d="M395,609.4L395,609.4c-0.1,0.1-0.2,0.1-0.3,0.2c-0.1,0.1-0.2,0.2-0.3,0.2c-0.1,0.1-0.2,0.1-0.4,0.2
				c-0.1,0.1-0.3,0.1-0.4,0.1c-0.4,0-0.8-0.2-1-0.5c-0.2-0.3-0.4-0.7-0.4-1.3c0-0.4,0.1-0.7,0.2-1.1c0.1-0.3,0.3-0.7,0.6-0.9
				c0.2-0.3,0.5-0.5,0.8-0.6c0.3-0.2,0.6-0.2,1-0.2c0.2,0,0.4,0,0.6,0.1c0.2,0.1,0.3,0.1,0.4,0.2l0.8-0.2l0.1,0.1l-0.7,2.8
				c0,0.1,0,0.2-0.1,0.3s0,0.2,0,0.3c0,0.2,0,0.3,0.1,0.3s0.2,0.1,0.4,0.1c0.1,0,0.1,0,0.2,0c0.1,0,0.2,0,0.2-0.1l-0.1,0.3
				c-0.3,0.1-0.5,0.2-0.6,0.2c-0.1,0-0.3,0.1-0.5,0.1c-0.2,0-0.4-0.1-0.5-0.2C395.1,609.8,395,609.6,395,609.4z M395.6,606.6
				c0-0.1,0-0.2,0-0.3c0-0.1-0.1-0.2-0.1-0.2c-0.1-0.1-0.1-0.1-0.2-0.2s-0.2-0.1-0.4-0.1c-0.2,0-0.4,0.1-0.6,0.2
				c-0.2,0.1-0.4,0.3-0.5,0.6c-0.2,0.2-0.3,0.5-0.4,0.8c-0.1,0.3-0.1,0.6-0.1,1c0,0.2,0,0.3,0,0.5c0,0.1,0.1,0.3,0.1,0.4
				c0.1,0.1,0.1,0.2,0.2,0.3c0.1,0.1,0.2,0.1,0.4,0.1c0.2,0,0.3,0,0.5-0.1c0.2-0.1,0.4-0.3,0.6-0.5L395.6,606.6z"/>
			<path class="st6" d="M401.7,609.5l-0.1,0.3c-0.3,0.1-0.5,0.2-0.6,0.2c-0.2,0-0.3,0.1-0.4,0.1c-0.2,0-0.4-0.1-0.5-0.2
				c-0.1-0.1-0.2-0.3-0.2-0.5c0-0.1,0-0.1,0-0.2c0-0.1,0-0.2,0.1-0.3l0.5-1.9c0-0.1,0-0.2,0.1-0.3c0-0.1,0-0.2,0-0.3
				c0-0.2,0-0.3-0.1-0.3c-0.1-0.1-0.2-0.1-0.3-0.1c-0.1,0-0.1,0-0.3,0c-0.1,0-0.2,0-0.2,0.1l0.1-0.3c0.2-0.1,0.4-0.2,0.6-0.2
				s0.3-0.1,0.4-0.1c0.2,0,0.4,0.1,0.5,0.2c0.1,0.1,0.2,0.3,0.2,0.5c0,0.1,0,0.1,0,0.2c0,0.1,0,0.2-0.1,0.3l-0.5,1.9
				c0,0.1-0.1,0.2-0.1,0.3s0,0.2,0,0.3c0,0.2,0,0.3,0.1,0.3c0.1,0.1,0.2,0.1,0.4,0.1c0.1,0,0.1,0,0.2,0S401.6,609.5,401.7,609.5z
				 M402,603.9c0,0.2-0.1,0.3-0.2,0.4c-0.1,0.1-0.2,0.2-0.4,0.2c-0.1,0-0.3-0.1-0.4-0.2c-0.1-0.1-0.2-0.3-0.2-0.4
				c0-0.2,0.1-0.3,0.2-0.4c0.1-0.1,0.2-0.2,0.4-0.2c0.2,0,0.3,0.1,0.4,0.2C402,603.6,402,603.8,402,603.9z"/>
			<path class="st6" d="M405.7,610.1c-0.4,0-0.8-0.1-1.1-0.2c-0.3-0.2-0.4-0.4-0.4-0.6c0-0.1,0-0.2,0.1-0.3c0.1-0.1,0.2-0.2,0.3-0.2
				c0.1,0,0.2,0,0.3,0.1c0.1,0.1,0.1,0.1,0.2,0.2c0,0.1,0.1,0.2,0.1,0.3s0.1,0.2,0.1,0.3c0,0.1,0.1,0.1,0.2,0.1
				c0.1,0,0.2,0.1,0.3,0.1c0.3,0,0.6-0.1,0.7-0.2c0.2-0.2,0.2-0.4,0.2-0.6c0-0.2-0.1-0.4-0.2-0.5s-0.4-0.2-0.7-0.3
				c-0.1,0-0.2-0.1-0.4-0.2c-0.1-0.1-0.3-0.1-0.4-0.2c-0.1-0.1-0.2-0.2-0.3-0.3s-0.1-0.3-0.1-0.5c0-0.4,0.2-0.7,0.5-1
				c0.3-0.3,0.7-0.4,1.2-0.4c0.1,0,0.2,0,0.4,0c0.1,0,0.3,0,0.4,0.1c0.1,0,0.3,0.1,0.4,0.2c0.1,0.1,0.1,0.2,0.1,0.4
				c0,0.1,0,0.2-0.1,0.3c-0.1,0.1-0.2,0.1-0.3,0.1c-0.1,0-0.2,0-0.3-0.1c-0.1,0-0.1-0.1-0.2-0.2s-0.1-0.2-0.1-0.3s-0.1-0.2-0.1-0.3
				c-0.1,0-0.1,0-0.1,0s-0.1,0-0.2,0c-0.3,0-0.5,0.1-0.7,0.2c-0.1,0.2-0.2,0.3-0.2,0.5c0,0.2,0.1,0.4,0.2,0.5s0.4,0.2,0.7,0.3
				c0.4,0.1,0.7,0.3,0.9,0.5c0.2,0.2,0.3,0.4,0.3,0.7c0,0.4-0.2,0.8-0.5,1.1C406.7,610,406.2,610.1,405.7,610.1z"/>
			<path class="st6" d="M410.7,603.3l-1.2,5.3c0,0.1-0.1,0.2-0.1,0.3c0,0.1,0,0.2,0,0.3c0,0.2,0,0.3,0.1,0.3
				c0.1,0.1,0.2,0.1,0.4,0.1c0.1,0,0.1,0,0.3,0s0.2,0,0.3-0.1l-0.1,0.3c-0.3,0.1-0.5,0.2-0.6,0.2s-0.3,0.1-0.5,0.1
				c-0.2,0-0.4-0.1-0.5-0.2c-0.1-0.1-0.2-0.3-0.2-0.5c0-0.1,0-0.1,0-0.2s0-0.2,0.1-0.3l1.1-4.6c0-0.1,0-0.2,0-0.2s0-0.1,0-0.1
				c0-0.1,0-0.2-0.1-0.2c0-0.1-0.1-0.1-0.1-0.1c-0.1,0-0.1,0-0.2-0.1s-0.2,0-0.3,0l0.1-0.3L410.7,603.3L410.7,603.3z"/>
			<path class="st6" d="M413,609.5l-0.1,0.3c-0.3,0.1-0.5,0.2-0.6,0.2c-0.2,0-0.3,0.1-0.4,0.1c-0.2,0-0.4-0.1-0.5-0.2
				c-0.1-0.1-0.2-0.3-0.2-0.5c0-0.1,0-0.1,0-0.2c0-0.1,0-0.2,0.1-0.3l0.5-1.9c0-0.1,0-0.2,0.1-0.3c0-0.1,0-0.2,0-0.3
				c0-0.2,0-0.3-0.1-0.3c-0.1-0.1-0.2-0.1-0.3-0.1c-0.1,0-0.2,0-0.3,0c-0.1,0-0.2,0-0.2,0.1l0.1-0.3c0.2-0.1,0.4-0.2,0.6-0.2
				s0.3-0.1,0.4-0.1c0.2,0,0.4,0.1,0.5,0.2c0.1,0.1,0.2,0.3,0.2,0.5c0,0.1,0,0.1,0,0.2c0,0.1,0,0.2-0.1,0.3l-0.5,1.9
				c0,0.1-0.1,0.2-0.1,0.3c0,0.1,0,0.2,0,0.3c0,0.2,0,0.3,0.1,0.3s0.2,0.1,0.4,0.1c0.1,0,0.1,0,0.2,0S412.9,609.5,413,609.5z
				 M413.3,603.9c0,0.2-0.1,0.3-0.2,0.4c-0.1,0.1-0.2,0.2-0.4,0.2c-0.1,0-0.3-0.1-0.4-0.2c-0.1-0.1-0.2-0.3-0.2-0.4
				c0-0.2,0.1-0.3,0.2-0.4c0.1-0.1,0.2-0.2,0.4-0.2c0.2,0,0.3,0.1,0.4,0.2C413.3,603.6,413.3,603.8,413.3,603.9z"/>
			<path class="st6" d="M418,606.1c0,0.1-0.1,0.2-0.2,0.4c-0.1,0.1-0.2,0.2-0.4,0.2c-0.1,0-0.2,0-0.3,0c-0.1,0-0.2-0.1-0.3-0.1
				c-0.2,0.1-0.3,0.2-0.5,0.3c-0.2,0.1-0.4,0.3-0.6,0.5c0.2,0.4,0.3,0.8,0.4,1.1c0.1,0.3,0.2,0.5,0.3,0.7c0.1,0.2,0.2,0.4,0.3,0.5
				c0.1,0.1,0.3,0.1,0.4,0.1c0.1,0,0.2,0,0.3,0c0.1,0,0.2,0,0.3-0.1l-0.1,0.3c-0.3,0.1-0.5,0.2-0.6,0.2c-0.2,0-0.3,0.1-0.5,0.1
				c-0.2,0-0.3-0.1-0.5-0.2c-0.1-0.1-0.3-0.3-0.4-0.6c-0.1-0.3-0.2-0.5-0.3-0.8c-0.1-0.3-0.2-0.5-0.3-0.7l-0.5,0.4l-0.4,1.7h-0.8
				l1.3-5.7c0-0.1,0-0.2,0-0.2s0-0.1,0-0.1c0-0.1,0-0.2-0.1-0.2c0-0.1-0.1-0.1-0.1-0.1c-0.1,0-0.1,0-0.2-0.1s-0.2,0-0.3,0l0.1-0.3
				l1.6-0.1l0,0.1l-1.1,4.6h0c0.3-0.4,0.6-0.7,0.9-0.9c0.3-0.3,0.6-0.5,0.8-0.8c0.2-0.2,0.4-0.3,0.5-0.4c0.1-0.1,0.3-0.1,0.4-0.1
				c0.1,0,0.3,0,0.4,0.1C417.9,605.8,418,605.9,418,606.1z"/>
			<path class="st6" d="M422.1,606.5c0,0.3-0.1,0.6-0.3,0.8s-0.5,0.4-0.8,0.5c-0.3,0.1-0.5,0.2-0.8,0.2c-0.3,0.1-0.6,0.1-0.9,0.2
				c0,0.5,0.1,0.8,0.3,1.1c0.2,0.2,0.4,0.4,0.8,0.4c0.3,0,0.6-0.1,0.8-0.2s0.4-0.4,0.7-0.7l0.3,0.2c-0.2,0.4-0.5,0.6-0.9,0.9
				c-0.4,0.2-0.7,0.3-1.1,0.3c-0.5,0-0.9-0.1-1.2-0.4c-0.3-0.3-0.4-0.7-0.4-1.2c0-0.4,0.1-0.7,0.2-1.1c0.1-0.3,0.3-0.6,0.5-0.9
				c0.2-0.3,0.5-0.5,0.8-0.7c0.3-0.2,0.7-0.3,1-0.3c0.4,0,0.7,0.1,0.9,0.3C422,606,422.1,606.2,422.1,606.5z M421.3,606.4
				c0-0.1,0-0.2,0-0.3c0-0.1-0.1-0.1-0.1-0.1c-0.1,0-0.1-0.1-0.2-0.1s-0.1,0-0.2,0c-0.4,0-0.7,0.2-1,0.6c-0.3,0.4-0.5,0.9-0.6,1.4
				c0.2,0,0.4-0.1,0.7-0.1c0.3-0.1,0.5-0.1,0.6-0.2c0.2-0.1,0.4-0.3,0.5-0.5C421.2,606.9,421.3,606.6,421.3,606.4z"/>
			<path class="st6" d="M428.6,606.3c0,0.1,0,0.2,0,0.3c0,0.1-0.1,0.2-0.1,0.2c-0.1,0.1-0.1,0.1-0.2,0.2c-0.1,0-0.2,0.1-0.3,0.1
				c-0.2,0-0.3,0-0.4-0.1c-0.1-0.1-0.1-0.2-0.1-0.3c0-0.1,0-0.2,0.1-0.3c0-0.1,0.1-0.2,0.1-0.3c0,0-0.1,0-0.2,0
				c-0.1,0-0.2,0.1-0.3,0.1c-0.1,0.1-0.2,0.1-0.4,0.3c-0.1,0.1-0.3,0.3-0.5,0.4l-0.7,3.1h-0.8l0.6-2.9c0-0.1,0-0.2,0.1-0.3
				c0-0.1,0-0.2,0-0.3c0-0.2,0-0.3-0.1-0.3s-0.2-0.1-0.3-0.1c-0.1,0-0.1,0-0.2,0c-0.1,0-0.2,0-0.2,0.1l0.1-0.3
				c0.2-0.1,0.4-0.2,0.6-0.2s0.3-0.1,0.5-0.1c0.2,0,0.4,0.1,0.5,0.2c0.1,0.1,0.1,0.3,0.1,0.6h0c0.3-0.3,0.6-0.5,0.8-0.6
				s0.4-0.2,0.6-0.2c0.1,0,0.2,0,0.3,0s0.2,0.1,0.2,0.1c0.1,0.1,0.1,0.1,0.1,0.2C428.6,606,428.6,606.1,428.6,606.3z"/>
			<path class="st6" d="M431.6,609.4L431.6,609.4c-0.1,0.1-0.2,0.1-0.3,0.2c-0.1,0.1-0.2,0.2-0.3,0.2c-0.1,0.1-0.2,0.1-0.4,0.2
				c-0.1,0.1-0.3,0.1-0.4,0.1c-0.4,0-0.8-0.2-1-0.5c-0.2-0.3-0.4-0.7-0.4-1.3c0-0.4,0.1-0.7,0.2-1.1c0.1-0.3,0.3-0.7,0.6-0.9
				c0.2-0.3,0.5-0.5,0.8-0.6c0.3-0.2,0.6-0.2,1-0.2c0.2,0,0.4,0,0.6,0.1c0.2,0.1,0.3,0.1,0.4,0.2l0.8-0.2l0.1,0.1l-0.7,2.8
				c0,0.1,0,0.2-0.1,0.3s0,0.2,0,0.3c0,0.2,0,0.3,0.1,0.3s0.2,0.1,0.4,0.1c0.1,0,0.1,0,0.2,0c0.1,0,0.2,0,0.2-0.1l-0.1,0.3
				c-0.3,0.1-0.5,0.2-0.6,0.2c-0.1,0-0.3,0.1-0.5,0.1c-0.2,0-0.4-0.1-0.5-0.2C431.7,609.8,431.6,609.6,431.6,609.4z M432.3,606.6
				c0-0.1,0-0.2,0-0.3c0-0.1-0.1-0.2-0.1-0.2c-0.1-0.1-0.1-0.1-0.2-0.2s-0.2-0.1-0.4-0.1c-0.2,0-0.4,0.1-0.6,0.2
				c-0.2,0.1-0.4,0.3-0.5,0.6c-0.2,0.2-0.3,0.5-0.4,0.8c-0.1,0.3-0.1,0.6-0.1,1c0,0.2,0,0.3,0,0.5c0,0.1,0.1,0.3,0.1,0.4
				c0.1,0.1,0.1,0.2,0.2,0.3c0.1,0.1,0.2,0.1,0.4,0.1c0.2,0,0.3,0,0.5-0.1c0.2-0.1,0.4-0.3,0.6-0.5L432.3,606.6z"/>
			<path class="st6" d="M435.7,610.1c-0.5,0-0.9-0.1-1.2-0.4c-0.3-0.3-0.4-0.7-0.4-1.3c0-0.4,0.1-0.7,0.2-1.1
				c0.1-0.3,0.3-0.6,0.5-0.9s0.5-0.5,0.8-0.6c0.3-0.2,0.7-0.2,1-0.2c0.4,0,0.7,0.1,1,0.3c0.2,0.2,0.3,0.4,0.3,0.7
				c0,0.2,0,0.4-0.1,0.5s-0.2,0.2-0.4,0.2c-0.2,0-0.3,0-0.4-0.1s-0.1-0.2-0.1-0.3c0-0.1,0-0.2,0.1-0.4c0.1-0.2,0.1-0.3,0.2-0.4
				c0-0.1-0.1-0.1-0.2-0.2c-0.1,0-0.2-0.1-0.3-0.1c-0.4,0-0.7,0.2-1,0.7c-0.3,0.5-0.4,1-0.4,1.7c0,0.4,0.1,0.7,0.3,1
				c0.2,0.2,0.4,0.4,0.8,0.4c0.3,0,0.5-0.1,0.8-0.2c0.2-0.2,0.4-0.4,0.6-0.6l0.3,0.2c-0.2,0.3-0.5,0.6-0.8,0.8
				C436.4,610,436.1,610.1,435.7,610.1z M438.2,603.4l-1.3,1.5c-0.1,0.1-0.1,0.1-0.2,0.2c0,0-0.1,0-0.3,0c-0.1,0-0.2,0-0.2,0
				s-0.1-0.1-0.1-0.1l-0.8-1.5l0.2-0.1l1,1.2l1.5-1.2L438.2,603.4z"/>
			<path class="st6" d="M440.9,609.4L440.9,609.4c-0.2,0.1-0.3,0.2-0.4,0.3s-0.2,0.2-0.4,0.2c-0.1,0.1-0.3,0.1-0.4,0.2
				c-0.1,0-0.3,0-0.4,0c-0.3,0-0.5-0.1-0.7-0.2c-0.2-0.2-0.2-0.4-0.2-0.6c0-0.1,0-0.2,0-0.3c0-0.1,0-0.2,0.1-0.4l0.3-1.4
				c0-0.1,0.1-0.2,0.1-0.3s0-0.2,0-0.3c0-0.2,0-0.3-0.1-0.3c-0.1-0.1-0.2-0.1-0.3-0.1c-0.1,0-0.1,0-0.2,0s-0.2,0-0.2,0.1l0.1-0.3
				c0.2-0.1,0.4-0.2,0.6-0.2c0.2-0.1,0.3-0.1,0.4-0.1c0.2,0,0.4,0.1,0.5,0.2c0.1,0.1,0.2,0.3,0.2,0.5c0,0.1,0,0.1,0,0.2
				s0,0.2-0.1,0.3l-0.4,1.6c0,0.1-0.1,0.2-0.1,0.3c0,0.1,0,0.2,0,0.2c0,0.2,0,0.4,0.1,0.5c0.1,0.1,0.2,0.2,0.4,0.2
				c0.2,0,0.4,0,0.6-0.1c0.2-0.1,0.4-0.2,0.6-0.4l0.8-3.3l0.8-0.1l0.1,0.1l-0.7,2.8c0,0.1-0.1,0.2-0.1,0.4c0,0.1,0,0.2,0,0.3
				c0,0.2,0,0.3,0.1,0.3c0.1,0.1,0.2,0.1,0.4,0.1c0.1,0,0.1,0,0.2,0s0.2,0,0.2-0.1l-0.1,0.3c-0.2,0.1-0.4,0.2-0.6,0.2
				s-0.3,0.1-0.5,0.1c-0.2,0-0.4-0.1-0.5-0.2S440.9,609.6,440.9,609.4z"/>
			<path class="st6" d="M448,609.5l-0.1,0.3c-0.3,0.1-0.5,0.2-0.6,0.2c-0.1,0-0.3,0.1-0.4,0.1c-0.2,0-0.4-0.1-0.5-0.2
				c-0.1-0.1-0.2-0.3-0.2-0.5c0-0.1,0-0.1,0-0.2c0-0.1,0-0.2,0.1-0.3l0.4-1.6c0-0.1,0.1-0.2,0.1-0.3c0-0.1,0-0.2,0-0.2
				c0-0.2,0-0.4-0.1-0.5c-0.1-0.1-0.2-0.2-0.4-0.2c-0.2,0-0.4,0.1-0.6,0.2s-0.4,0.3-0.6,0.5l-0.8,3.2h-0.8l0.7-2.9
				c0-0.1,0-0.2,0.1-0.3c0-0.1,0-0.2,0-0.3c0-0.2,0-0.3-0.1-0.3s-0.2-0.1-0.3-0.1c-0.1,0-0.1,0-0.2,0c-0.1,0-0.2,0-0.2,0.1l0.1-0.3
				c0.2-0.1,0.4-0.2,0.6-0.2c0.2,0,0.3-0.1,0.5-0.1c0.2,0,0.4,0.1,0.5,0.2c0.1,0.1,0.2,0.3,0.2,0.5h0c0.3-0.3,0.6-0.4,0.8-0.6
				c0.2-0.1,0.5-0.2,0.8-0.2c0.3,0,0.5,0.1,0.7,0.2s0.2,0.4,0.2,0.6c0,0.1,0,0.1,0,0.3s0,0.3-0.1,0.4l-0.4,1.4
				c0,0.1-0.1,0.2-0.1,0.3s0,0.2,0,0.3c0,0.2,0,0.3,0.1,0.3c0.1,0.1,0.2,0.1,0.4,0.1c0.1,0,0.1,0,0.2,0
				C447.9,609.5,448,609.5,448,609.5z"/>
			<path class="st6" d="M451.4,609.4L451.4,609.4c-0.1,0.1-0.2,0.1-0.3,0.2c-0.1,0.1-0.2,0.2-0.3,0.2c-0.1,0.1-0.2,0.1-0.4,0.2
				c-0.1,0.1-0.3,0.1-0.4,0.1c-0.4,0-0.8-0.2-1-0.5c-0.2-0.3-0.4-0.7-0.4-1.3c0-0.4,0.1-0.7,0.2-1.1c0.1-0.3,0.3-0.7,0.6-0.9
				c0.2-0.3,0.5-0.5,0.8-0.6c0.3-0.2,0.6-0.2,1-0.2c0.2,0,0.4,0,0.6,0.1c0.2,0.1,0.3,0.1,0.4,0.2l0.8-0.2l0.1,0.1l-0.7,2.8
				c0,0.1,0,0.2-0.1,0.3s0,0.2,0,0.3c0,0.2,0,0.3,0.1,0.3s0.2,0.1,0.4,0.1c0.1,0,0.1,0,0.2,0c0.1,0,0.2,0,0.2-0.1l-0.1,0.3
				c-0.3,0.1-0.5,0.2-0.6,0.2c-0.1,0-0.3,0.1-0.5,0.1c-0.2,0-0.4-0.1-0.5-0.2C451.4,609.8,451.4,609.6,451.4,609.4z M452,606.6
				c0-0.1,0-0.2,0-0.3c0-0.1-0.1-0.2-0.1-0.2c-0.1-0.1-0.1-0.1-0.2-0.2s-0.2-0.1-0.4-0.1c-0.2,0-0.4,0.1-0.6,0.2
				c-0.2,0.1-0.4,0.3-0.5,0.6c-0.2,0.2-0.3,0.5-0.4,0.8c-0.1,0.3-0.1,0.6-0.1,1c0,0.2,0,0.3,0,0.5c0,0.1,0.1,0.3,0.1,0.4
				c0.1,0.1,0.1,0.2,0.2,0.3c0.1,0.1,0.2,0.1,0.4,0.1c0.2,0,0.3,0,0.5-0.1c0.2-0.1,0.4-0.3,0.6-0.5L452,606.6z"/>
			<path class="st6" d="M456.1,603.3l-1.2,5.3c0,0.1-0.1,0.2-0.1,0.3c0,0.1,0,0.2,0,0.3c0,0.2,0,0.3,0.1,0.3
				c0.1,0.1,0.2,0.1,0.4,0.1c0.1,0,0.1,0,0.3,0s0.2,0,0.3-0.1l-0.1,0.3c-0.3,0.1-0.5,0.2-0.6,0.2s-0.3,0.1-0.5,0.1
				c-0.2,0-0.4-0.1-0.5-0.2c-0.1-0.1-0.2-0.3-0.2-0.5c0-0.1,0-0.1,0-0.2s0-0.2,0.1-0.3l1.1-4.6c0-0.1,0-0.2,0-0.2s0-0.1,0-0.1
				c0-0.1,0-0.2-0.1-0.2c0-0.1-0.1-0.1-0.1-0.1c-0.1,0-0.1,0-0.2-0.1s-0.2,0-0.3,0l0.1-0.3L456.1,603.3L456.1,603.3z"/>
			<path class="st6" d="M460.6,607.3c0,0.3-0.1,0.7-0.2,1c-0.1,0.3-0.3,0.6-0.5,0.9c-0.2,0.3-0.5,0.5-0.8,0.6
				c-0.3,0.2-0.7,0.2-1.1,0.2c-0.5,0-0.9-0.2-1.2-0.5c-0.3-0.3-0.5-0.7-0.5-1.3c0-0.4,0.1-0.8,0.2-1.1c0.1-0.3,0.3-0.6,0.5-0.9
				c0.2-0.3,0.5-0.5,0.8-0.6c0.3-0.2,0.7-0.2,1.1-0.2c0.5,0,0.9,0.2,1.2,0.5S460.6,606.8,460.6,607.3z M459.7,607.1
				c0-0.4-0.1-0.7-0.2-0.9c-0.1-0.2-0.4-0.3-0.6-0.3c-0.2,0-0.5,0.1-0.7,0.2s-0.4,0.4-0.6,0.7c-0.1,0.3-0.2,0.5-0.3,0.9
				c-0.1,0.3-0.1,0.6-0.1,0.9c0,0.4,0.1,0.7,0.2,1c0.1,0.2,0.4,0.3,0.7,0.3c0.3,0,0.5-0.1,0.7-0.2c0.2-0.2,0.4-0.4,0.5-0.6
				c0.1-0.2,0.2-0.5,0.3-0.8C459.6,607.8,459.7,607.5,459.7,607.1z"/>
			<path class="st6" d="M468.5,609.5l-0.1,0.3c-0.3,0.1-0.5,0.2-0.6,0.2c-0.2,0-0.3,0.1-0.4,0.1c-0.2,0-0.4-0.1-0.5-0.2
				c-0.1-0.1-0.2-0.3-0.2-0.5c0-0.1,0-0.1,0-0.2c0-0.1,0-0.2,0.1-0.3l0.4-1.6c0-0.1,0.1-0.2,0.1-0.3c0-0.1,0-0.2,0-0.2
				c0-0.2,0-0.4-0.1-0.5s-0.2-0.2-0.4-0.2c-0.2,0-0.4,0-0.6,0.1c-0.2,0.1-0.4,0.3-0.6,0.5l-0.8,3.3H464l0.7-2.9c0-0.1,0-0.1,0-0.2
				c0-0.1,0-0.1,0-0.2c0-0.2,0-0.3-0.1-0.4c-0.1-0.1-0.2-0.2-0.4-0.2c-0.2,0-0.3,0-0.5,0.1c-0.2,0.1-0.4,0.3-0.7,0.6l-0.8,3.2h-0.8
				l0.7-2.9c0-0.1,0-0.2,0.1-0.3s0-0.2,0-0.3c0-0.2,0-0.3-0.1-0.3c-0.1-0.1-0.2-0.1-0.3-0.1c-0.1,0-0.1,0-0.2,0s-0.2,0-0.2,0.1
				l0.1-0.3c0.2-0.1,0.4-0.2,0.6-0.2c0.2-0.1,0.3-0.1,0.5-0.1c0.2,0,0.4,0.1,0.5,0.2c0.1,0.1,0.2,0.3,0.2,0.5h0
				c0.3-0.3,0.6-0.5,0.9-0.6s0.5-0.2,0.8-0.2c0.3,0,0.5,0.1,0.6,0.2c0.2,0.2,0.3,0.3,0.3,0.6h0c0.3-0.3,0.6-0.5,0.8-0.6
				c0.2-0.1,0.5-0.2,0.9-0.2c0.3,0,0.5,0.1,0.6,0.2s0.2,0.4,0.2,0.6c0,0.1,0,0.1,0,0.3s0,0.3-0.1,0.4l-0.4,1.4
				c0,0.1-0.1,0.2-0.1,0.3s0,0.2,0,0.3c0,0.2,0,0.3,0.1,0.3c0.1,0.1,0.2,0.1,0.4,0.1c0.1,0,0.1,0,0.2,0
				C468.4,609.5,468.5,609.5,468.5,609.5z"/>
			<path class="st6" d="M470.7,609.8c0,0.2,0,0.4-0.1,0.6s-0.2,0.3-0.3,0.5c-0.1,0.1-0.3,0.3-0.4,0.4s-0.3,0.2-0.4,0.3l-0.2-0.3
				c0.1-0.1,0.3-0.2,0.4-0.3s0.2-0.2,0.3-0.3c0.1-0.1,0.2-0.2,0.2-0.3c0.1-0.1,0.1-0.3,0.1-0.4H470c-0.2,0-0.3-0.1-0.5-0.2
				c-0.1-0.1-0.2-0.2-0.2-0.4c0-0.1,0-0.2,0.1-0.4c0.1-0.1,0.2-0.2,0.4-0.2c0.3,0,0.4,0.1,0.6,0.3
				C470.6,609.3,470.7,609.5,470.7,609.8z"/>
			<path class="st6" d="M476.9,610h-3v-0.3c0.1,0,0.2,0,0.4,0c0.2,0,0.3,0,0.4-0.1c0.1,0,0.2-0.1,0.2-0.1c0-0.1,0.1-0.2,0.1-0.3
				v-3.1h-1.1v-0.4h0.2c0.3,0,0.6-0.1,0.9-0.2c0.3-0.1,0.4-0.2,0.5-0.4h0.4c0,0.2,0,0.4,0,0.7c0,0.3,0,0.5,0,0.7v2.6
				c0,0.1,0,0.2,0.1,0.3c0,0.1,0.1,0.1,0.2,0.2c0.1,0,0.2,0.1,0.4,0.1c0.2,0,0.3,0,0.4,0V610z"/>
			<path class="st6" d="M481.9,607.7c0,0.5-0.1,1-0.2,1.4c-0.2,0.4-0.4,0.8-0.7,1.2c-0.3,0.3-0.7,0.6-1.1,0.8
				c-0.4,0.2-0.9,0.4-1.4,0.4l-0.1-0.4l0.4-0.1c0.6-0.2,1.1-0.5,1.5-0.9c0.4-0.4,0.6-0.9,0.7-1.6c-0.2,0.2-0.5,0.4-0.7,0.5
				c-0.2,0.1-0.5,0.1-0.8,0.1c-0.5,0-0.9-0.2-1.2-0.6c-0.4-0.4-0.5-0.8-0.5-1.4c0-0.6,0.2-1.1,0.6-1.5c0.4-0.4,0.9-0.6,1.5-0.6
				c0.7,0,1.2,0.2,1.6,0.7C481.7,606.3,481.9,606.9,481.9,607.7z M480.9,607.7c0-0.7-0.1-1.2-0.3-1.6c-0.2-0.4-0.5-0.6-0.9-0.6
				c-0.3,0-0.6,0.2-0.8,0.5c-0.2,0.3-0.3,0.7-0.3,1.2c0,0.5,0.1,0.9,0.3,1.1c0.2,0.3,0.5,0.4,0.9,0.4c0.2,0,0.4,0,0.6-0.1
				c0.2-0.1,0.4-0.2,0.5-0.4c0,0,0,0,0-0.1c0,0,0-0.1,0-0.1c0,0,0-0.1,0-0.2C480.9,607.8,480.9,607.7,480.9,607.7z"/>
			<path class="st6" d="M487,607.7c0,0.5-0.1,1-0.2,1.4c-0.2,0.4-0.4,0.8-0.7,1.2c-0.3,0.3-0.7,0.6-1.1,0.8
				c-0.4,0.2-0.9,0.4-1.4,0.4l-0.1-0.4l0.4-0.1c0.6-0.2,1.1-0.5,1.5-0.9s0.6-0.9,0.7-1.6c-0.2,0.2-0.5,0.4-0.7,0.5s-0.5,0.1-0.8,0.1
				c-0.5,0-0.9-0.2-1.2-0.6c-0.4-0.4-0.5-0.8-0.5-1.4c0-0.6,0.2-1.1,0.6-1.5c0.4-0.4,0.9-0.6,1.5-0.6c0.7,0,1.2,0.2,1.6,0.7
				C486.8,606.3,487,606.9,487,607.7z M486,607.7c0-0.7-0.1-1.2-0.3-1.6c-0.2-0.4-0.5-0.6-0.9-0.6c-0.3,0-0.6,0.2-0.8,0.5
				c-0.2,0.3-0.3,0.7-0.3,1.2c0,0.5,0.1,0.9,0.3,1.1s0.5,0.4,0.9,0.4c0.2,0,0.4,0,0.6-0.1c0.2-0.1,0.4-0.2,0.5-0.4c0,0,0,0,0-0.1
				c0,0,0-0.1,0-0.1c0,0,0-0.1,0-0.2C486,607.8,486,607.7,486,607.7z"/>
			<path class="st6" d="M491.9,605.9c0.2,0.2,0.3,0.5,0.4,0.8c0.1,0.3,0.1,0.6,0.1,1c0,0.4-0.1,0.8-0.2,1.1
				c-0.1,0.3-0.3,0.6-0.5,0.8c-0.2,0.2-0.4,0.4-0.7,0.5c-0.3,0.1-0.6,0.2-0.9,0.2c-0.4,0-0.7-0.1-1-0.2c-0.3-0.1-0.5-0.3-0.7-0.5
				c-0.2-0.2-0.3-0.5-0.4-0.8c-0.1-0.3-0.1-0.6-0.1-1c0-0.3,0-0.7,0.1-1c0.1-0.3,0.2-0.6,0.4-0.8c0.2-0.2,0.4-0.4,0.7-0.5
				s0.6-0.2,1-0.2c0.4,0,0.7,0.1,1,0.2C491.5,605.5,491.7,605.7,491.9,605.9z M491.5,607.6c0-0.7-0.1-1.2-0.4-1.6
				c-0.2-0.4-0.6-0.6-1-0.6c-0.4,0-0.7,0.2-1,0.6s-0.4,0.9-0.4,1.6c0,0.7,0.1,1.2,0.3,1.6c0.2,0.4,0.6,0.6,1,0.6s0.8-0.2,1-0.6
				C491.4,608.8,491.5,608.3,491.5,607.6z"/>
			<path class="st6" d="M494.8,609.5c0,0.2-0.1,0.3-0.2,0.4c-0.1,0.1-0.3,0.2-0.4,0.2s-0.3-0.1-0.4-0.2c-0.1-0.1-0.2-0.3-0.2-0.4
				c0-0.2,0.1-0.3,0.2-0.4c0.1-0.1,0.3-0.2,0.4-0.2s0.3,0.1,0.4,0.2C494.7,609.2,494.8,609.3,494.8,609.5z"/>
			<path class="st6" d="M497.3,609.8c0,0.2,0,0.4-0.1,0.6c-0.1,0.2-0.2,0.3-0.3,0.5c-0.1,0.1-0.3,0.3-0.4,0.4s-0.3,0.2-0.4,0.3
				l-0.2-0.3c0.1-0.1,0.3-0.2,0.4-0.3s0.2-0.2,0.3-0.3c0.1-0.1,0.2-0.2,0.2-0.3c0.1-0.1,0.1-0.3,0.1-0.4h-0.2
				c-0.2,0-0.3-0.1-0.5-0.2s-0.2-0.2-0.2-0.4c0-0.1,0-0.2,0.1-0.4c0.1-0.1,0.2-0.2,0.4-0.2c0.3,0,0.4,0.1,0.6,0.3
				C497.2,609.3,497.3,609.5,497.3,609.8z"/>
			<path class="st6" d="M505.3,608.1l-0.2,1.9h-5v-0.2l3.9-5.7h-1.4c-0.2,0-0.3,0-0.4,0s-0.2,0-0.3,0c-0.2,0-0.4,0.2-0.7,0.5
				c-0.2,0.3-0.4,0.6-0.5,0.9h-0.3l0.2-1.8h4.7v0.2l-3.9,5.7h1.5c0.3,0,0.5,0,0.8-0.1s0.5-0.1,0.5-0.2c0.2-0.2,0.4-0.4,0.5-0.7
				s0.3-0.5,0.4-0.7H505.3z"/>
			<path class="st6" d="M509.8,609.9c-0.1,0-0.3,0.1-0.4,0.1c-0.1,0-0.2,0-0.4,0c-0.2,0-0.4-0.1-0.5-0.2c-0.1-0.1-0.2-0.3-0.3-0.5h0
				c-0.2,0.2-0.4,0.4-0.6,0.5c-0.2,0.1-0.5,0.2-0.8,0.2c-0.3,0-0.6-0.1-0.8-0.3c-0.2-0.2-0.3-0.5-0.3-0.8c0-0.2,0-0.3,0.1-0.4
				c0-0.1,0.1-0.3,0.2-0.4c0.1-0.1,0.2-0.2,0.3-0.2c0.1-0.1,0.2-0.1,0.3-0.2c0.1,0,0.4-0.1,0.8-0.3s0.7-0.2,0.8-0.3v-0.4
				c0,0,0-0.1,0-0.2c0-0.1-0.1-0.2-0.1-0.3c-0.1-0.1-0.1-0.2-0.2-0.3c-0.1-0.1-0.3-0.1-0.5-0.1c-0.1,0-0.3,0-0.4,0.1
				c-0.1,0-0.2,0.1-0.2,0.1c0,0.1,0,0.1,0,0.3c0,0.1,0,0.2,0,0.3c0,0.1,0,0.2-0.1,0.3s-0.2,0.1-0.4,0.1c-0.1,0-0.3-0.1-0.3-0.2
				c-0.1-0.1-0.1-0.2-0.1-0.3c0-0.1,0-0.3,0.1-0.4c0.1-0.1,0.2-0.2,0.4-0.3c0.1-0.1,0.3-0.2,0.5-0.2c0.2-0.1,0.4-0.1,0.5-0.1
				c0.2,0,0.5,0,0.6,0.1c0.2,0,0.3,0.1,0.5,0.2c0.1,0.1,0.3,0.3,0.3,0.4c0.1,0.2,0.1,0.4,0.1,0.7c0,0.4,0,0.8,0,1.1
				c0,0.3,0,0.7,0,1.1c0,0.1,0,0.2,0.1,0.3c0,0.1,0.1,0.1,0.2,0.2c0,0,0.1,0,0.2,0c0.1,0,0.2,0,0.3,0V609.9z M508.3,607.6
				c-0.2,0.1-0.5,0.1-0.7,0.2s-0.4,0.2-0.5,0.3c-0.1,0.1-0.3,0.2-0.3,0.4c-0.1,0.1-0.1,0.3-0.1,0.5c0,0.2,0.1,0.4,0.2,0.5
				s0.3,0.2,0.5,0.2c0.2,0,0.4-0.1,0.5-0.2c0.2-0.1,0.3-0.2,0.4-0.4L508.3,607.6z"/>
			<path class="st6" d="M513.9,609.6c0.1,0.1,0.2,0.2,0.3,0.4c0.1,0.1,0.1,0.3,0.1,0.5c0,0.2,0,0.4-0.1,0.6
				c-0.1,0.2-0.2,0.3-0.4,0.5c-0.2,0.1-0.4,0.2-0.7,0.3c-0.3,0.1-0.6,0.1-1,0.1c-0.7,0-1.1-0.1-1.5-0.3c-0.3-0.2-0.5-0.5-0.5-0.8
				c0-0.3,0.1-0.5,0.4-0.7s0.5-0.3,0.9-0.3v-0.1c-0.1,0-0.2-0.1-0.3-0.1c-0.1,0-0.2-0.1-0.2-0.1c-0.1-0.1-0.1-0.1-0.2-0.2
				c0-0.1-0.1-0.2-0.1-0.3c0-0.2,0.1-0.3,0.2-0.4c0.1-0.1,0.3-0.2,0.5-0.3v-0.1c-0.3-0.1-0.5-0.3-0.7-0.5c-0.2-0.2-0.2-0.4-0.2-0.7
				c0-0.4,0.2-0.7,0.5-1c0.3-0.3,0.7-0.4,1.2-0.4c0.1,0,0.3,0,0.4,0c0.1,0,0.3,0.1,0.4,0.1h1.5v0.4h-1v0c0.1,0.1,0.2,0.3,0.2,0.4
				s0.1,0.3,0.1,0.4c0,0.4-0.2,0.7-0.5,1c-0.3,0.3-0.7,0.4-1.1,0.4h-0.5c-0.1,0-0.1,0.1-0.2,0.1s-0.1,0.1-0.1,0.3
				c0,0.1,0,0.2,0.1,0.2c0.1,0.1,0.1,0.1,0.2,0.1c0.1,0,0.2,0,0.3,0c0.1,0,0.2,0,0.3,0c0.1,0,0.3,0,0.5,0c0.2,0,0.4,0,0.5,0
				c0.1,0,0.3,0,0.4,0.1S513.8,609.4,513.9,609.6z M513.6,610.6c0-0.2,0-0.3-0.1-0.4s-0.2-0.2-0.3-0.2c-0.1,0-0.3,0-0.5,0
				s-0.6,0-0.9,0c-0.3,0.1-0.5,0.2-0.7,0.3c-0.1,0.1-0.2,0.3-0.2,0.6c0,0.1,0,0.2,0.1,0.3s0.1,0.2,0.2,0.3c0.1,0.1,0.2,0.1,0.4,0.2
				c0.2,0,0.4,0.1,0.6,0.1c0.4,0,0.8-0.1,1-0.2C513.5,611.2,513.6,611,513.6,610.6z M512.8,607c0-0.3-0.1-0.6-0.2-0.8
				c-0.1-0.2-0.3-0.3-0.6-0.3c-0.1,0-0.3,0-0.4,0.1c-0.1,0.1-0.2,0.1-0.2,0.2c-0.1,0.1-0.1,0.2-0.1,0.3c0,0.1,0,0.3,0,0.4
				c0,0.3,0.1,0.6,0.2,0.8c0.1,0.2,0.3,0.3,0.6,0.3c0.3,0,0.4-0.1,0.6-0.3C512.7,607.5,512.8,607.3,512.8,607z"/>
			<path class="st6" d="M518.1,606.2c0,0.2,0,0.3-0.1,0.4c-0.1,0.1-0.2,0.2-0.3,0.2c-0.2,0-0.3,0-0.4-0.1c-0.1-0.1-0.1-0.2-0.1-0.3
				c0-0.1,0-0.1,0-0.2c0-0.1,0-0.1,0-0.2c-0.1,0-0.3,0.1-0.5,0.2s-0.3,0.3-0.5,0.5v2.5c0,0.1,0,0.2,0.1,0.3c0,0.1,0.1,0.1,0.2,0.1
				c0.1,0,0.2,0.1,0.3,0.1c0.1,0,0.2,0,0.3,0v0.3h-2.3v-0.3c0.1,0,0.1,0,0.2,0c0.1,0,0.1,0,0.2,0c0.1,0,0.1-0.1,0.2-0.1
				c0-0.1,0.1-0.2,0.1-0.3v-2.7c0-0.1,0-0.2-0.1-0.3s-0.1-0.2-0.2-0.2c-0.1,0-0.1-0.1-0.2-0.1c-0.1,0-0.2,0-0.2,0v-0.3l1.4-0.1
				l0.1,0.1v0.6h0c0.2-0.2,0.4-0.4,0.6-0.5s0.4-0.2,0.6-0.2c0.2,0,0.3,0.1,0.5,0.2C518.1,605.9,518.1,606,518.1,606.2z"/>
			<path class="st6" d="M522.3,609c-0.2,0.3-0.4,0.6-0.7,0.8s-0.7,0.3-1.1,0.3c-0.3,0-0.7-0.1-0.9-0.2c-0.3-0.1-0.5-0.3-0.6-0.5
				s-0.3-0.5-0.4-0.7c-0.1-0.3-0.1-0.6-0.1-0.9c0-0.3,0-0.6,0.1-0.8c0.1-0.3,0.2-0.5,0.4-0.7c0.2-0.2,0.4-0.4,0.6-0.5
				c0.2-0.1,0.5-0.2,0.8-0.2c0.3,0,0.6,0,0.8,0.1c0.2,0.1,0.4,0.2,0.5,0.4c0.1,0.2,0.2,0.4,0.3,0.6c0.1,0.2,0.1,0.5,0.1,0.7v0.3
				h-2.9c0,0.3,0,0.5,0.1,0.8c0.1,0.2,0.1,0.4,0.3,0.6c0.1,0.2,0.3,0.3,0.4,0.4c0.2,0.1,0.4,0.1,0.7,0.1c0.3,0,0.5-0.1,0.7-0.2
				c0.2-0.1,0.4-0.3,0.5-0.7L522.3,609z M521.4,607.3c0-0.2,0-0.3,0-0.5c0-0.2-0.1-0.3-0.1-0.5c-0.1-0.1-0.2-0.2-0.3-0.3
				s-0.3-0.1-0.5-0.1c-0.3,0-0.6,0.1-0.8,0.4c-0.2,0.3-0.3,0.6-0.3,1.1H521.4z"/>
			<path class="st6" d="M527.2,607.8c0,0.7-0.2,1.2-0.6,1.6s-0.9,0.7-1.4,0.7c-0.2,0-0.5,0-0.7-0.1c-0.2-0.1-0.4-0.2-0.6-0.3
				l-0.3,0.5l-0.3-0.1c0-0.2,0-0.5,0-0.8s0-0.6,0-0.9v-4.3c0-0.1,0-0.2-0.1-0.3c0-0.1-0.1-0.2-0.2-0.2c-0.1,0-0.1-0.1-0.3-0.1
				c-0.1,0-0.2,0-0.3,0v-0.3l1.6-0.1l0.1,0.1v2.9l0,0c0.2-0.2,0.4-0.3,0.6-0.4c0.2-0.1,0.4-0.1,0.6-0.1c0.5,0,1,0.2,1.3,0.6
				S527.2,607.2,527.2,607.8z M526.3,607.9c0-0.2,0-0.4-0.1-0.7s-0.1-0.4-0.2-0.6c-0.1-0.2-0.2-0.3-0.4-0.4s-0.4-0.2-0.6-0.2
				c-0.2,0-0.4,0-0.5,0.1c-0.2,0.1-0.3,0.2-0.4,0.3v2.5c0,0.1,0.1,0.2,0.1,0.2c0.1,0.1,0.1,0.2,0.2,0.3c0.1,0.1,0.2,0.1,0.3,0.2
				c0.1,0.1,0.2,0.1,0.4,0.1c0.4,0,0.6-0.2,0.9-0.5S526.3,608.5,526.3,607.9z"/>
		</g>
		<polygon class="st4" points="400.8,512.5 340.5,512.5 280.3,512.5 267.3,497.5 280.3,482.5 340.5,482.5 400.8,482.5 414.3,497.5 
					"/>
		<polygon class="st4" points="200.7,512.5 140.5,512.5 80.3,512.5 67.3,497.5 80.3,482.5 140.5,482.5 200.7,482.5 214.2,497.5 		
			"/>
		<rect x="66.7" y="548.5" class="st4" width="147.5" height="30"/>
		<rect x="66.7" y="258.5" class="st4" width="147.5" height="30"/>
		<rect x="66.7" y="417.5" class="st4" width="147.5" height="30"/>
		<polygon class="st4" points="503.8,157.5 398.5,157.5 281.3,157.5 268.3,142.5 281.3,127.5 398.5,127.5 503.8,127.5 517.3,142.5 
					"/>
		<polygon class="st4" points="503.8,91.5 398.5,91.5 281.3,91.5 268.3,76.5 281.3,61.5 398.5,61.5 503.8,61.5 517.3,76.5 		"/>
		<polygon class="st4" points="503.8,222.5 398.5,222.5 281.3,222.5 268.3,207.5 281.3,192.5 398.5,192.5 503.8,192.5 517.3,207.5 
					"/>
		<polygon class="st4" points="503.8,288.5 398.5,288.5 281.3,288.5 268.3,273.5 281.3,258.5 398.5,258.5 503.8,258.5 517.3,273.5 
					"/>
		<g>
			<g>
				<line class="st4" x1="31.3" y1="91.5" x2="31.3" y2="590.9"/>
				<g>
					<polygon class="st6" points="27.2,587.6 27.9,586.9 31.2,590.5 34.6,586.9 35.3,587.6 31.2,592 					"/>
				</g>
			</g>
		</g>
		<g>
			<g>
				<line class="st4" x1="83.3" y1="40" x2="83.3" y2="58.9"/>
				<g>
					<polygon class="st6" points="79.2,55.6 79.9,54.9 83.2,58.5 86.6,54.9 87.3,55.6 83.2,60 					"/>
				</g>
			</g>
		</g>
		<g>
			<g>
				<polyline class="st4" points="157.8,76.5 215.3,76.5 215.5,26 394.3,26 394.3,60.4 				"/>
				<g>
					<polygon class="st6" points="390.2,57.1 390.9,56.4 394.2,60 397.6,56.4 398.3,57.1 394.2,61.5 					"/>
				</g>
			</g>
		</g>
		<g>
			<g>
				<polyline class="st4" points="268.3,76.5 241.3,76.5 241.3,121.5 138.3,121.5 106.3,121.5 106.3,154.9 				"/>
				<g>
					<polygon class="st6" points="102.2,151.6 102.9,150.9 106.2,154.5 109.6,150.9 110.3,151.6 106.2,156 					"/>
				</g>
			</g>
		</g>
		<g>
			<g>
				<polyline class="st4" points="517.3,207.5 532.3,207.5 532.3,401 340.3,401.5 340.7,415.9 				"/>
				<g>
					<polygon class="st6" points="336.5,412.7 337.2,412 340.7,415.5 343.9,411.8 344.7,412.5 340.7,417 					"/>
				</g>
			</g>
		</g>
		<g>
			<g>
				<polyline class="st4" points="67.3,171 54.2,171 54.2,93.1 				"/>
				<g>
					<polygon class="st6" points="58.3,96.4 57.6,97.1 54.3,93.5 50.9,97.1 50.2,96.4 54.3,92 					"/>
				</g>
			</g>
		</g>
		<text transform="matrix(1 0 0 1 174.814 71.1006)" class="st2 st10 st11">idui</text>
		<text transform="matrix(1 0 0 1 6.5034 116.1006)" class="st2 st10 st11">kraj</text>
		<text transform="matrix(1 0 0 1 104.4819 116.1006)" class="st2 st10 st11">da</text>
		<polyline class="st4" points="268.3,142.5 241.2,142.5 241.2,208.5 54.3,208.5 54.3,141.5 		"/>
		<text transform="matrix(1 0 0 1 243.4819 137.1006)" class="st2 st10 st11">da</text>
		<text transform="matrix(1 0 0 1 519.4819 203.1006)" class="st2 st10 st11">da</text>
		<g>
			<g>
				<line class="st4" x1="268.3" y1="273.5" x2="215.8" y2="273.5"/>
				<g>
					<polygon class="st6" points="219.1,269.4 219.8,270.1 216.2,273.5 219.8,276.9 219.1,277.6 214.8,273.5 					"/>
				</g>
			</g>
		</g>
		<text transform="matrix(1 0 0 1 234.4819 268.1006)" class="st2 st10 st11">da</text>
		<g>
			<g>
				<line class="st4" x1="267.3" y1="497.5" x2="214.8" y2="497.5"/>
				<g>
					<polygon class="st6" points="218.1,493.4 218.8,494.1 215.2,497.5 218.8,500.9 218.1,501.6 213.8,497.5 					"/>
				</g>
			</g>
		</g>
		<text transform="matrix(1 0 0 1 233.4819 492.1006)" class="st2 st10 st11">da</text>
		<g>
			<g>
				<line class="st4" x1="267.3" y1="432.5" x2="214.8" y2="432.5"/>
				<g>
					<polygon class="st6" points="218.1,428.4 218.8,429.1 215.2,432.5 218.8,435.9 218.1,436.6 213.8,432.5 					"/>
				</g>
			</g>
		</g>
		<text transform="matrix(1 0 0 1 233.4819 427.1006)" class="st2 st10 st11">da</text>
		<text transform="matrix(1 0 0 1 145.4819 533.1006)" class="st2 st10 st11">da</text>
		<g>
			<g>
				<polyline class="st4" points="268.3,339.5 138.8,339.5 138.8,289.6 				"/>
				<g>
					<polygon class="st6" points="142.8,292.9 142.1,293.6 138.8,290 135.4,293.6 134.7,292.9 138.8,288.5 					"/>
				</g>
			</g>
		</g>
		<text transform="matrix(1 0 0 1 234.4819 334.1006)" class="st2 st10 st11">da</text>
		<g>
			<g>
				<line class="st4" x1="394.3" y1="157.5" x2="394.3" y2="190.9"/>
				<g>
					<polygon class="st6" points="390.2,187.6 390.9,186.9 394.2,190.5 397.6,186.9 398.3,187.6 394.2,192 					"/>
				</g>
			</g>
		</g>
		<text transform="matrix(1 0 0 1 398.5054 177.1006)" class="st2 st10 st11">ne</text>
		<g>
			<g>
				<line class="st4" x1="394.3" y1="91.5" x2="394.3" y2="125.9"/>
				<g>
					<polygon class="st6" points="390.2,122.6 390.9,121.9 394.2,125.5 397.6,121.9 398.3,122.6 394.2,127 					"/>
				</g>
			</g>
		</g>
		<text transform="matrix(1 0 0 1 398.5054 111.1006)" class="st2 st10 st11">ne</text>
		<g>
			<g>
				<line class="st4" x1="394.3" y1="222.5" x2="394.3" y2="256.9"/>
				<g>
					<polygon class="st6" points="390.2,253.6 390.9,252.9 394.2,256.5 397.6,252.9 398.3,253.6 394.2,258 					"/>
				</g>
			</g>
		</g>
		<text transform="matrix(1 0 0 1 398.5054 242.1006)" class="st2 st10 st11">ne</text>
		<polygon class="st4" points="503.8,354.5 398.5,354.5 281.3,354.5 268.3,339.5 281.3,324.5 398.5,324.5 503.8,324.5 517.3,339.5 
					"/>
		<g>
			<g>
				<line class="st4" x1="394.3" y1="288.5" x2="394.3" y2="322.9"/>
				<g>
					<polygon class="st6" points="390.2,319.6 390.9,318.9 394.2,322.5 397.6,318.9 398.3,319.6 394.2,324 					"/>
				</g>
			</g>
		</g>
		<text transform="matrix(1 0 0 1 398.5054 308.1006)" class="st2 st10 st11">ne</text>
		<g>
			<g>
				<line class="st4" x1="340.3" y1="447.5" x2="340.3" y2="480.9"/>
				<g>
					<polygon class="st6" points="336.2,477.6 336.9,476.9 340.2,480.5 343.6,476.9 344.3,477.6 340.2,482 					"/>
				</g>
			</g>
		</g>
		<text transform="matrix(1 0 0 1 344.5054 467.1006)" class="st2 st10 st11">ne</text>
		<g>
			<g>
				<line class="st4" x1="140.2" y1="482" x2="140.2" y2="448.6"/>
				<g>
					<polygon class="st6" points="144.3,451.9 143.6,452.6 140.3,449 136.9,452.6 136.2,451.9 140.3,447.5 					"/>
				</g>
			</g>
		</g>
		<text transform="matrix(1 0 0 1 145.5054 467.1006)" class="st2 st10 st11">ne</text>
		<g>
			<g>
				<line class="st4" x1="140.3" y1="512.5" x2="140.3" y2="546.9"/>
				<g>
					<polygon class="st6" points="136.2,543.6 136.9,542.9 140.2,546.5 143.6,542.9 144.3,543.6 140.2,548 					"/>
				</g>
			</g>
		</g>
		<text transform="matrix(1 0 0 1 346.5054 533.1006)" class="st2 st10 st11">ne</text>
		<polyline class="st4" points="394.3,354.5 394.3,386 54.3,386.5 54.3,169.5 		"/>
		<polyline class="st4" points="140.3,578 140.3,589.5 54.3,590 54.3,382 		"/>
		<text transform="matrix(1 0 0 1 398.5054 372.1006)" class="st2 st10 st11">ne</text>
		<g>
			<circle class="st4" cx="31.3" cy="604.5" r="11.3"/>
			<line class="st4" x1="23.4" y1="596.6" x2="39.1" y2="612.4"/>
			<line class="st4" x1="23.4" y1="612.4" x2="39.1" y2="596.6"/>
		</g>
		<line class="st4" x1="66.7" y1="273.5" x2="54.2" y2="273.5"/>
		<line class="st4" x1="66.7" y1="432.5" x2="54.2" y2="432.5"/>
		<g>
			<g>
				<polyline class="st4" points="342.3,512.5 342.3,564.5 215.3,564.5 				"/>
				<g>
					<polygon class="st6" points="218.6,560.4 219.3,561.1 215.7,564.5 219.3,567.9 218.6,568.6 214.3,564.5 					"/>
				</g>
			</g>
		</g>
		<text transform="matrix(1 0 0 1 55.6309 30)"><tspan x="0" y="0" class="st12 st10 st11">rije</tspan><tspan x="23.2" y="0" class="st6 st10 st11"> = ...</tspan></text>
		<text transform="matrix(1 0 0 1 23.5645 80)"><tspan x="0" y="0" class="st12 st10 st11">i</tspan><tspan x="3.5" y="0" class="st6 st10 st11"> &lt; broj slova u </tspan><tspan x="81.3" y="0" class="st12 st10 st11">rije </tspan><tspan x="107.4" y="0" class="st6 st10 st11">- 2 </tspan></text>
		<text transform="matrix(1 0 0 1 282.707 436)"><tspan x="0" y="0" class="st12 st10 st11">rije</tspan><tspan x="23.2" y="0" class="st6 st10 st11">[i+1] je u [s,,z,] </tspan></text>
		<text transform="matrix(1 0 0 1 283.5391 501)"><tspan x="0" y="0" class="st12 st10 st11">rije</tspan><tspan x="23.2" y="0" class="st6 st10 st11">[i+2] je u [j,l,r,v] </tspan></text>
		<text transform="matrix(1 0 0 1 84.3125 501)"><tspan x="0" y="0" class="st12 st10 st11">rije</tspan><tspan x="23.2" y="0" class="st6 st10 st11">[i+1] je u [j,l,r,v] </tspan></text>
		<text transform="matrix(1 0 0 1 290.873 80)"><tspan x="0" y="0" class="st12 st10 st11">rije</tspan><tspan x="23.2" y="0" class="st6 st10 st11">[i+1] je vokal i </tspan><tspan x="101.3" y="0" class="st12 st10 st11">rije</tspan><tspan x="124.5" y="0" class="st6 st10 st11">[i+2] je vokal </tspan></text>
		<text transform="matrix(1 0 0 1 74.9746 176)"><tspan x="0" y="0" class="st12 st10 st11">rije</tspan><tspan x="23.2" y="0" class="st6 st10 st11">[i] i </tspan><tspan x="45" y="0" class="st12 st10 st11">rije</tspan><tspan x="68.2" y="0" class="st6 st10 st11">[i+1] su slog </tspan></text>
		<text transform="matrix(1 0 0 1 74.9746 568)"><tspan x="0" y="0" class="st12 st10 st11">rije</tspan><tspan x="23.2" y="0" class="st6 st10 st11">[i] i </tspan><tspan x="45" y="0" class="st12 st10 st11">rije</tspan><tspan x="68.2" y="0" class="st6 st10 st11">[i+1] su slog </tspan></text>
		<text transform="matrix(1 0 0 1 69 278)"><tspan x="0" y="0" class="st12 st10 st11">rije</tspan><tspan x="22" y="0" class="st6 st10 st11">[i+1] i </tspan><tspan x="54.8" y="0" class="st12 st10 st11">rije</tspan><tspan x="76.7" y="0" class="st6 st10 st11">[i+2] su slog </tspan></text>
		<text transform="matrix(1 0 0 1 69 437)"><tspan x="0" y="0" class="st12 st10 st11">rije</tspan><tspan x="22" y="0" class="st6 st10 st11">[i+1] i </tspan><tspan x="54.8" y="0" class="st12 st10 st11">rije</tspan><tspan x="76.7" y="0" class="st6 st10 st11">[i+2] su slog </tspan></text>
		<text transform="matrix(1 0 0 1 281.0361 146)"><tspan x="0" y="0" class="st12 st10 st11">rije</tspan><tspan x="23.2" y="0" class="st6 st10 st11">[i+1] je vokal i </tspan><tspan x="101.3" y="0" class="st12 st10 st11">rije</tspan><tspan x="124.5" y="0" class="st6 st10 st11">[i+2] je konsonant </tspan></text>
		<text transform="matrix(1 0 0 1 294.8027 211)"><tspan x="0" y="0" class="st12 st10 st11">rije</tspan><tspan x="23.2" y="0" class="st6 st10 st11">[i+1] je kons. i </tspan><tspan x="101.4" y="0" class="st12 st10 st11">rije</tspan><tspan x="124.6" y="0" class="st6 st10 st11">[i+2] je kons. </tspan></text>
		<text transform="matrix(1 0 0 1 278 277)"><tspan x="0" y="0" class="st12 st10 st11">rije</tspan><tspan x="22" y="0" class="st6 st10 st11">[i] i </tspan><tspan x="42.4" y="0" class="st12 st10 st11">rije</tspan><tspan x="64.4" y="0" class="st6 st10 st11">[i+2] su vok. i </tspan><tspan x="140" y="0" class="st12 st10 st11">rije</tspan><tspan x="162" y="0" class="st6 st10 st11">[i+1] je kons. </tspan></text>
		<text transform="matrix(1 0 0 1 275 343)"><tspan x="0" y="0" class="st12 st10 st11">rije</tspan><tspan x="22" y="0" class="st6 st10 st11">[i] i </tspan><tspan x="42.4" y="0" class="st12 st10 st11">rije</tspan><tspan x="64.4" y="0" class="st6 st10 st11">[i+1] su konst. i</tspan><tspan x="142.5" y="0" class="st6 st10 st11"> </tspan><tspan x="150" y="0" class="st12 st10 st11">rije</tspan><tspan x="172" y="0" class="st6 st10 st11">[i+2] je vok. </tspan></text>
	</g>
</g>
<script type="text/javascript">
	// <![CDATA[
	window.onload = function() {
		const svg = document.getElementsByTagName("svg")[0];
		const x = svg.viewBox.baseVal.x;
		let y = svg.viewBox.baseVal.y;
		const w = svg.viewBox.baseVal.width;
		const h = svg.viewBox.baseVal.height;
		window.addEventListener("wheel", function(e) {
			y = y + e.deltaY / 10;
			y = y < 0 ? 0 : y;
			y = y > h / 1.5 ? h / 1.5 : y;
			svg.setAttribute("viewBox", `${x} ${y} ${w} ${h}`);
		});
	}
	// ]]>
</script>
</svg>
