<?xml version="1.0" encoding="utf-8"?>
<!-- Generator: Adobe Illustrator 22.1.0, SVG Export Plug-In . SVG Version: 6.00 Build 0)  -->
<svg version="1.1" xmlns="http://www.w3.org/2000/svg" xmlns:xlink="http://www.w3.org/1999/xlink" x="0px" y="0px"
	 viewBox="0 0 1024 467" style="enable-background:new 0 0 1024 467;" xml:space="preserve">
<style type="text/css">
	.st0{fill:none;stroke:#4D4D4D;stroke-width:10;stroke-miterlimit:10;}
	.st1{fill:none;stroke:#00CCDD;stroke-width:2.5;stroke-miterlimit:10;}
	.st2{fill:#00CCDD;}
	.st1, .st2 {display: none;}
</style>
<g id="Layer_1">
	<g>
		<line class="st0" x1="786.5" y1="11.5" x2="983.5" y2="11.5"/>
		<line class="st0" x1="786.5" y1="41.2" x2="983.5" y2="41.2"/>
		<line class="st0" x1="786.5" y1="70.9" x2="983.5" y2="70.9"/>
		<line class="st0" x1="786.5" y1="100.7" x2="983.5" y2="100.7"/>
		<line class="st0" x1="786.5" y1="130.4" x2="983.5" y2="130.4"/>
		<line class="st0" x1="786.5" y1="160.1" x2="983.5" y2="160.1"/>
		<line class="st0" x1="786.5" y1="189.8" x2="983.5" y2="189.8"/>
		<line class="st0" x1="786.5" y1="219.6" x2="983.5" y2="219.6"/>
		<line class="st0" x1="786.5" y1="249.3" x2="983.5" y2="249.3"/>
		<line class="st0" x1="786.5" y1="279" x2="983.5" y2="279"/>
		<line class="st0" x1="786.5" y1="308.7" x2="983.5" y2="308.7"/>
		<line class="st0" x1="786.5" y1="338.5" x2="983.5" y2="338.5"/>
		<line class="st0" x1="786.5" y1="368.2" x2="983.5" y2="368.2"/>
		<line class="st0" x1="786.5" y1="397.9" x2="983.5" y2="397.9"/>
		<line class="st0" x1="786.5" y1="427.6" x2="983.5" y2="427.6"/>
		<line class="st0" x1="786.5" y1="457.4" x2="983.5" y2="457.4"/>
	</g>
	<g>
		<line class="st0" x1="42.5" y1="11.5" x2="219" y2="12.2"/>
		<line class="st0" x1="42.5" y1="41.2" x2="189.5" y2="41.2"/>
		<line class="st0" x1="42.5" y1="70.9" x2="237" y2="71.7"/>
		<line class="st0" x1="42.5" y1="100.7" x2="196.5" y2="100.7"/>
		<line class="st0" x1="42.5" y1="130.4" x2="231" y2="130.4"/>
		<line class="st0" x1="42.5" y1="160.1" x2="243.5" y2="160.1"/>
		<line class="st0" x1="42.5" y1="189.8" x2="230" y2="190.6"/>
		<line class="st0" x1="42.5" y1="219.6" x2="211.5" y2="219.6"/>
		<line class="st0" x1="42.5" y1="249.3" x2="231.5" y2="249.3"/>
		<line class="st0" x1="42.5" y1="279" x2="225.5" y2="279"/>
		<line class="st0" x1="42.5" y1="308.7" x2="213.5" y2="308.7"/>
		<line class="st0" x1="42.5" y1="338.5" x2="227.5" y2="338.5"/>
		<line class="st0" x1="42.5" y1="368.2" x2="203.5" y2="368.2"/>
		<line class="st0" x1="42.5" y1="397.9" x2="231.5" y2="397.9"/>
		<line class="st0" x1="42.5" y1="427.6" x2="231.5" y2="427.6"/>
		<line class="st0" x1="42.5" y1="457.4" x2="219.5" y2="457.4"/>
	</g>
	<g>
		<line class="st0" x1="482.5" y1="457.4" x2="306" y2="456.6"/>
		<line class="st0" x1="482.5" y1="427.6" x2="335.5" y2="427.6"/>
		<line class="st0" x1="482.5" y1="397.9" x2="288" y2="397.2"/>
		<line class="st0" x1="482.5" y1="368.2" x2="328.5" y2="368.2"/>
		<line class="st0" x1="482.5" y1="338.5" x2="294" y2="338.5"/>
		<line class="st0" x1="482.5" y1="308.7" x2="281.5" y2="308.7"/>
		<line class="st0" x1="482.5" y1="279" x2="295" y2="278.3"/>
		<line class="st0" x1="482.5" y1="249.3" x2="313.5" y2="249.3"/>
		<line class="st0" x1="482.5" y1="219.6" x2="293.5" y2="219.6"/>
		<line class="st0" x1="482.5" y1="189.8" x2="299.5" y2="189.8"/>
		<line class="st0" x1="482.5" y1="160.1" x2="311.5" y2="160.1"/>
		<line class="st0" x1="482.5" y1="130.4" x2="297.5" y2="130.4"/>
		<line class="st0" x1="482.5" y1="100.7" x2="321.5" y2="100.7"/>
		<line class="st0" x1="482.5" y1="70.9" x2="293.5" y2="70.9"/>
		<line class="st0" x1="482.5" y1="41.2" x2="293.5" y2="41.2"/>
		<line class="st0" x1="482.5" y1="11.5" x2="305.5" y2="11.5"/>
	</g>
	<g>
		<line class="st0" x1="724.2" y1="457.4" x2="547.7" y2="456.6"/>
		<line class="st0" x1="709.5" y1="427.6" x2="562.5" y2="427.6"/>
		<line class="st0" x1="733.2" y1="397.9" x2="538.7" y2="397.2"/>
		<line class="st0" x1="713" y1="368.2" x2="559" y2="368.2"/>
		<line class="st0" x1="730.2" y1="338.5" x2="541.7" y2="338.5"/>
		<line class="st0" x1="736.5" y1="308.7" x2="535.5" y2="308.7"/>
		<line class="st0" x1="729.7" y1="279" x2="542.2" y2="278.3"/>
		<line class="st0" x1="720.5" y1="249.3" x2="551.5" y2="249.3"/>
		<line class="st0" x1="730.5" y1="219.6" x2="541.5" y2="219.6"/>
		<line class="st0" x1="727.5" y1="189.8" x2="544.5" y2="189.8"/>
		<line class="st0" x1="721.5" y1="160.1" x2="550.5" y2="160.1"/>
		<line class="st0" x1="728.5" y1="130.4" x2="543.5" y2="130.4"/>
		<line class="st0" x1="716.5" y1="100.7" x2="555.5" y2="100.7"/>
		<line class="st0" x1="730.5" y1="70.9" x2="541.5" y2="70.9"/>
		<line class="st0" x1="730.5" y1="41.2" x2="541.5" y2="41.2"/>
		<line class="st0" x1="724.5" y1="11.5" x2="547.5" y2="11.5"/>
	</g>
	<g>
		<g>
			<path class="st1" d="M42,11.5c0,0,153.5,0,175.5,0c15,0,15,15.6,0,15.6c-19,0-160,0-175,0c-14.4,0-15,13.1-1.6,14.1"/>
			<g>
				<polygon class="st2" points="35.1,46.3 34.2,45.1 40.3,40.9 35.7,35.1 36.9,34.2 42.5,41.2 				"/>
			</g>
		</g>
		<g>
			<path class="st1" d="M42,41.2c0,0,125.5,0,147.5,0c15,0,15,15.6,0,15.6c-19,0-132,0-147,0c-14.4,0-15,13.1-1.6,14.1"/>
			<g>
				<polygon class="st2" points="35.1,76.1 34.2,74.8 40.3,70.6 35.7,64.9 36.9,63.9 42.5,70.9 				"/>
			</g>
		</g>
		<g>
			<path class="st1" d="M42,70.9c0,0,167.5,0,189.5,0c15,0,15,15.6,0,15.6c-19,0-174,0-189,0c-14.4,0-15,13.1-1.6,14.1"/>
			<g>
				<polygon class="st2" points="35.1,105.8 34.2,104.6 40.3,100.4 35.7,94.6 36.9,93.7 42.5,100.7 				"/>
			</g>
		</g>
		<g>
			<path class="st1" d="M42,100.7c0,0,132.5,0,154.5,0c15,0,15,15.6,0,15.6c-19,0-139,0-154,0c-14.4,0-15,13.1-1.6,14.1"/>
			<g>
				<polygon class="st2" points="35.1,135.5 34.2,134.3 40.3,130.1 35.7,124.3 36.9,123.4 42.5,130.4 				"/>
			</g>
		</g>
		<g>
			<path class="st1" d="M42,130.4c0,0,166.5,0,188.5,0c15,0,15,15.6,0,15.6c-19,0-173,0-188,0c-14.4,0-15,13.1-1.6,14.1"/>
			<g>
				<polygon class="st2" points="35.1,165.2 34.2,164 40.3,159.8 35.7,154 36.9,153.1 42.5,160.1 				"/>
			</g>
		</g>
		<g>
			<path class="st1" d="M42,160.1c0,0,179.5,0,201.5,0c15,0,15,15.6,0,15.6c-19,0-186,0-201,0c-14.4,0-15,13.1-1.6,14.1"/>
			<g>
				<polygon class="st2" points="35.1,195 34.2,193.7 40.3,189.5 35.7,183.8 36.9,182.8 42.5,189.8 				"/>
			</g>
		</g>
		<g>
			<path class="st1" d="M42,189.8c0,0,166.5,0,188.5,0c15,0,15,15.6,0,15.6c-19,0-173,0-188,0c-14.4,0-15,13.1-1.6,14.1"/>
			<g>
				<polygon class="st2" points="35.1,224.7 34.2,223.5 40.3,219.3 35.7,213.5 36.9,212.5 42.5,219.6 				"/>
			</g>
		</g>
		<g>
			<path class="st1" d="M42,219.6c0,0,147.5,0,169.5,0c15,0,15,15.6,0,15.6c-19,0-154,0-169,0c-14.4,0-15,13.1-1.6,14.1"/>
			<g>
				<polygon class="st2" points="35.1,254.4 34.2,253.2 40.3,249 35.7,243.2 36.9,242.3 42.5,249.3 				"/>
			</g>
		</g>
		<g>
			<path class="st1" d="M42,249.3c0,0,167.5,0,189.5,0c15,0,15,15.6,0,15.6c-19,0-174,0-189,0c-14.4,0-15,13.1-1.6,14.1"/>
			<g>
				<polygon class="st2" points="35.1,284.1 34.2,282.9 40.3,278.7 35.7,272.9 36.9,272 42.5,279 				"/>
			</g>
		</g>
		<g>
			<path class="st1" d="M42,279c0,0,161.5,0,183.5,0c15,0,15,15.6,0,15.6c-19,0-168,0-183,0c-14.4,0-15,13.1-1.6,14.1"/>
			<g>
				<polygon class="st2" points="35.1,313.9 34.2,312.6 40.3,308.4 35.7,302.7 36.9,301.7 42.5,308.7 				"/>
			</g>
		</g>
		<g>
			<path class="st1" d="M42,308.7c0,0,149.5,0,171.5,0c15,0,15,15.6,0,15.6c-19,0-156,0-171,0c-14.4,0-15,13.1-1.6,14.1"/>
			<g>
				<polygon class="st2" points="35.1,343.6 34.2,342.4 40.3,338.1 35.7,332.4 36.9,331.4 42.5,338.5 				"/>
			</g>
		</g>
		<g>
			<path class="st1" d="M42,338.5c0,0,163.5,0,185.5,0c15,0,15,15.6,0,15.6c-19,0-170,0-185,0c-14.4,0-15,13.1-1.6,14.1"/>
			<g>
				<polygon class="st2" points="35.1,373.3 34.2,372.1 40.3,367.9 35.7,362.1 36.9,361.2 42.5,368.2 				"/>
			</g>
		</g>
		<g>
			<path class="st1" d="M42,368.2c0,0,139.5,0,161.5,0c15,0,15,15.6,0,15.6c-19,0-146,0-161,0c-14.4,0-15,13.1-1.6,14.1"/>
			<g>
				<polygon class="st2" points="35.1,403 34.2,401.8 40.3,397.6 35.7,391.8 36.9,390.9 42.5,397.9 				"/>
			</g>
		</g>
		<g>
			<path class="st1" d="M42,397.9c0,0,167.5,0,189.5,0c15,0,15,15.6,0,15.6c-19,0-174,0-189,0c-14.4,0-15,13.1-1.6,14.1"/>
			<g>
				<polygon class="st2" points="35.1,432.8 34.2,431.5 40.3,427.3 35.7,421.6 36.9,420.6 42.5,427.6 				"/>
			</g>
		</g>
		<g>
			<path class="st1" d="M42,427.6c0,0,167.5,0,189.5,0c15,0,15,15.6,0,15.6c-19,0-174,0-189,0c-14.4,0-15,13.1-1.6,14.1"/>
			<g>
				<polygon class="st2" points="35.1,462.5 34.2,461.2 40.3,457 35.7,451.3 36.9,450.3 42.5,457.4 				"/>
			</g>
		</g>
	</g>
	<g>
		<g>
			<path class="st1" d="M271,11.5c0,0,189.5,0,211.5,0c15,0,15,15.6,0,15.6c-19,0-174,0-189,0c-14.4,0-15,13.1-1.6,14.1"/>
			<g>
				<polygon class="st2" points="286.1,46.3 285.2,45.1 291.3,40.9 286.7,35.1 287.9,34.2 293.5,41.2 				"/>
			</g>
		</g>
		<g>
			<path class="st1" d="M294,41.2c0,0,166.5,0,188.5,0c15,0,15,15.6,0,15.6c-19,0-174,0-189,0c-14.4,0-15,13.1-1.6,14.1"/>
			<g>
				<polygon class="st2" points="286.1,76.1 285.2,74.8 291.3,70.6 286.7,64.9 287.9,63.9 293.5,70.9 				"/>
			</g>
		</g>
		<g>
			<path class="st1" d="M293,70.9c0,0,167.5,0,189.5,0c15,0,15,15.6,0,15.6c-19,0-146,0-161,0c-14.4,0-15,13.1-1.6,14.1"/>
			<g>
				<polygon class="st2" points="314.1,105.8 313.2,104.6 319.3,100.4 314.7,94.6 315.9,93.7 321.5,100.7 				"/>
			</g>
		</g>
		<g>
			<path class="st1" d="M321,100.7c0,0,139.5,0,161.5,0c15,0,15,15.6,0,15.6c-19,0-169,0-184,0c-14.4,0-15,13.1-1.6,14.1"/>
			<g>
				<polygon class="st2" points="291.1,135.5 290.2,134.3 296.3,130.1 291.7,124.3 292.9,123.4 298.5,130.4 				"/>
			</g>
		</g>
		<g>
			<path class="st1" d="M298,130.4c0,0,162.5,0,184.5,0c15,0,15,15.6,0,15.6c-19,0-156,0-171,0c-14.4,0-15,13.1-1.6,14.1"/>
			<g>
				<polygon class="st2" points="304.1,165.2 303.2,164 309.3,159.8 304.7,154 305.9,153.1 311.5,160.1 				"/>
			</g>
		</g>
		<g>
			<path class="st1" d="M311,160.1c0,0,149.5,0,171.5,0c15,0,15,15.6,0,15.6c-19,0-168,0-183,0c-14.4,0-15,13.1-1.6,14.1"/>
			<g>
				<polygon class="st2" points="292.1,195 291.2,193.7 297.3,189.5 292.7,183.8 293.9,182.8 299.5,189.8 				"/>
			</g>
		</g>
		<g>
			<path class="st1" d="M299,189.8c0,0,161.5,0,183.5,0c15,0,15,15.6,0,15.6c-19,0-174,0-189,0c-14.4,0-15,13.1-1.6,14.1"/>
			<g>
				<polygon class="st2" points="286.1,224.7 285.2,223.5 291.3,219.3 286.7,213.5 287.9,212.5 293.5,219.6 				"/>
			</g>
		</g>
		<g>
			<path class="st1" d="M293,219.6c0,0,167.5,0,189.5,0c15,0,15,15.6,0,15.6c-19,0-154,0-169,0c-14.4,0-15,13.1-1.6,14.1"/>
			<g>
				<polygon class="st2" points="306.1,254.4 305.2,253.2 311.3,249 306.7,243.2 307.9,242.3 313.5,249.3 				"/>
			</g>
		</g>
		<g>
			<path class="st1" d="M313,249.3c0,0,147.5,0,169.5,0c15,0,15,15.6,0,15.6c-19,0-172,0-187,0c-14.4,0-15,13.1-1.6,14.1"/>
			<g>
				<polygon class="st2" points="288.1,284.1 287.2,282.9 293.3,278.7 288.7,272.9 289.9,272 295.5,279 				"/>
			</g>
		</g>
		<g>
			<path class="st1" d="M295,279c0,0,165.5,0,187.5,0c15,0,15,15.6,0,15.6c-19,0-186,0-201,0c-14.4,0-15,13.1-1.6,14.1"/>
			<g>
				<polygon class="st2" points="274.1,313.9 273.2,312.6 279.3,308.4 274.7,302.7 275.9,301.7 281.5,308.7 				"/>
			</g>
		</g>
		<g>
			<path class="st1" d="M281,308.7c0,0,179.5,0,201.5,0c15,0,15,15.6,0,15.6c-19,0-173,0-188,0c-14.4,0-15,13.1-1.6,14.1"/>
			<g>
				<polygon class="st2" points="287.1,343.6 286.2,342.4 292.3,338.1 287.7,332.4 288.9,331.4 294.5,338.5 				"/>
			</g>
		</g>
		<g>
			<path class="st1" d="M294,338.5c0,0,166.5,0,188.5,0c15,0,15,15.6,0,15.6c-19,0-139,0-154,0c-14.4,0-15,13.1-1.6,14.1"/>
			<g>
				<polygon class="st2" points="321.1,373.3 320.2,372.1 326.3,367.9 321.7,362.1 322.9,361.2 328.5,368.2 				"/>
			</g>
		</g>
		<g>
			<path class="st1" d="M328,368.2c0,0,132.5,0,154.5,0c15,0,15,15.6,0,15.6c-19,0-180,0-195,0c-14.4,0-15,13.1-1.6,14.1"/>
			<g>
				<polygon class="st2" points="280.1,403 279.2,401.8 285.3,397.6 280.7,391.8 281.9,390.9 287.5,397.9 				"/>
			</g>
		</g>
		<g>
			<path class="st1" d="M287,397.9c0,0,173.5,0,195.5,0c15,0,15,15.6,0,15.6c-19,0-132,0-147,0c-14.4,0-15,13.1-1.6,14.1"/>
			<g>
				<polygon class="st2" points="328.1,432.8 327.2,431.5 333.3,427.3 328.7,421.6 329.9,420.6 335.5,427.6 				"/>
			</g>
		</g>
		<g>
			<path class="st1" d="M335,427.6c0,0,125.5,0,147.5,0c15,0,15,15.6,0,15.6c-19,0-161,0-176,0c-14.4,0-15,13.1-1.6,14.1"/>
			<g>
				<polygon class="st2" points="299.1,462.5 298.2,461.2 304.3,457 299.7,451.3 300.9,450.3 306.5,457.4 				"/>
			</g>
		</g>
	</g>
	<g>
		<g>
			<path class="st1" d="M524,11.5c0,0,178.5,0,200.5,0c15,0,15,15.6,0,15.6c-19,0-167,0-182,0c-14.4,0-15,13.1-1.6,14.1"/>
			<g>
				<polygon class="st2" points="535.1,46.3 534.2,45.1 540.3,40.9 535.7,35.1 536.9,34.2 542.5,41.2 				"/>
			</g>
		</g>
		<g>
			<path class="st1" d="M542,41.2c0,0,165.5,0,187.5,0c15,0,15,15.6,0,15.6c-19,0-172,0-187,0c-14.4,0-15,13.1-1.6,14.1"/>
			<g>
				<polygon class="st2" points="535.1,76.1 534.2,74.8 540.3,70.6 535.7,64.9 536.9,63.9 542.5,70.9 				"/>
			</g>
		</g>
		<g>
			<path class="st1" d="M542,70.9c0,0,166.5,0,188.5,0c15,0,15,15.6,0,15.6c-19,0-159,0-174,0c-14.4,0-15,13.1-1.6,14.1"/>
			<g>
				<polygon class="st2" points="549.1,105.8 548.2,104.6 554.3,100.4 549.7,94.6 550.9,93.7 556.5,100.7 				"/>
			</g>
		</g>
		<g>
			<path class="st1" d="M556,100.7c0,0,138.5,0,160.5,0c15,0,15,15.6,0,15.6c-19,0-157,0-172,0c-14.4,0-15,13.1-1.6,14.1"/>
			<g>
				<polygon class="st2" points="537.1,135.5 536.2,134.3 542.3,130.1 537.7,124.3 538.9,123.4 544.5,130.4 				"/>
			</g>
		</g>
		<g>
			<path class="st1" d="M544,130.4c0,0,162.5,0,184.5,0c15,0,15,15.6,0,15.6c-19,0-163,0-178,0c-14.4,0-15,13.1-1.6,14.1"/>
			<g>
				<polygon class="st2" points="543.1,165.2 542.2,164 548.3,159.8 543.7,154 544.9,153.1 550.5,160.1 				"/>
			</g>
		</g>
		<g>
			<path class="st1" d="M550,160.1c0,0,149.5,0,171.5,0c15,0,15,15.6,0,15.6c-19,0-161,0-176,0c-14.4,0-15,13.1-1.6,14.1"/>
			<g>
				<polygon class="st2" points="538.1,195 537.2,193.7 543.3,189.5 538.7,183.8 539.9,182.8 545.5,189.8 				"/>
			</g>
		</g>
		<g>
			<path class="st1" d="M545,189.8c0,0,160.5,0,182.5,0c15,0,15,15.6,0,15.6c-19,0-171,0-186,0c-14.4,0-15,13.1-1.6,14.1"/>
			<g>
				<polygon class="st2" points="534.1,224.7 533.2,223.5 539.3,219.3 534.7,213.5 535.9,212.5 541.5,219.6 				"/>
			</g>
		</g>
		<g>
			<path class="st1" d="M541,219.6c0,0,167.5,0,189.5,0c15,0,15,15.6,0,15.6c-19,0-164,0-179,0c-14.4,0-15,13.1-1.6,14.1"/>
			<g>
				<polygon class="st2" points="544.1,254.4 543.2,253.2 549.3,249 544.7,243.2 545.9,242.3 551.5,249.3 				"/>
			</g>
		</g>
		<g>
			<path class="st1" d="M551,249.3c0,0,147.5,0,169.5,0c15,0,15,15.6,0,15.6c-19,0-163,0-178,0c-14.4,0-15,13.1-1.6,14.1"/>
			<g>
				<polygon class="st2" points="535.1,284.1 534.2,282.9 540.3,278.7 535.7,272.9 536.9,272 542.5,279 				"/>
			</g>
		</g>
		<g>
			<path class="st1" d="M542,279c0,0,165.5,0,187.5,0c15,0,15,15.6,0,15.6c-19,0-179,0-194,0c-14.4,0-15,13.1-1.6,14.1"/>
			<g>
				<polygon class="st2" points="528.1,313.9 527.2,312.6 533.3,308.4 528.7,302.7 529.9,301.7 535.5,308.7 				"/>
			</g>
		</g>
		<g>
			<path class="st1" d="M535,308.7c0,0,179.5,0,201.5,0c15,0,15,15.6,0,15.6c-19,0-179,0-194,0c-14.4,0-15,13.1-1.6,14.1"/>
			<g>
				<polygon class="st2" points="535.1,343.6 534.2,342.4 540.3,338.1 535.7,332.4 536.9,331.4 542.5,338.5 				"/>
			</g>
		</g>
		<g>
			<path class="st1" d="M542,338.5c0,0,166.5,0,188.5,0c15,0,15,15.6,0,15.6c-19,0-156,0-171,0c-14.4,0-15,13.1-1.6,14.1"/>
			<g>
				<polygon class="st2" points="552.1,373.3 551.2,372.1 557.3,367.9 552.7,362.1 553.9,361.2 559.5,368.2 				"/>
			</g>
		</g>
		<g>
			<path class="st1" d="M559,368.2c0,0,132.5,0,154.5,0c15,0,15,15.6,0,15.6c-19,0-160,0-175,0c-14.4,0-15,13.1-1.6,14.1"/>
			<g>
				<polygon class="st2" points="531.1,403 530.2,401.8 536.3,397.6 531.7,391.8 532.9,390.9 538.5,397.9 				"/>
			</g>
		</g>
		<g>
			<path class="st1" d="M538,397.9c0,0,173.5,0,195.5,0c15,0,15,15.6,0,15.6c-19,0-156,0-171,0c-14.4,0-15,13.1-1.6,14.1"/>
			<g>
				<polygon class="st2" points="555.1,432.8 554.2,431.5 560.3,427.3 555.7,421.6 556.9,420.6 562.5,427.6 				"/>
			</g>
		</g>
		<g>
			<path class="st1" d="M562,427.6c0,0,125.5,0,147.5,0c15,0,15,15.6,0,15.6c-19,0-147,0-162,0c-14.4,0-15,13.1-1.6,14.1"/>
			<g>
				<polygon class="st2" points="540.1,462.5 539.2,461.2 545.3,457 540.7,451.3 541.9,450.3 547.5,457.4 				"/>
			</g>
		</g>
	</g>
	<g>
		<g>
			<path class="st1" d="M786,11.5c0,0,171,0,195.5,0c16.7,0,16.7,15.6,0,15.6c-21.2,0-178.2,0-194.9,0c-16.1,0-16.7,13.2-1.6,14.1"
				/>
			<g>
				<polygon class="st2" points="779.3,46.6 778.4,45.4 784.3,41 779.5,35.4 780.6,34.4 786.5,41.2 				"/>
			</g>
		</g>
		<g>
			<path class="st1" d="M786,41.2c0,0,171,0,195.5,0c16.7,0,16.7,15.6,0,15.6c-21.2,0-178.2,0-194.9,0c-16.1,0-16.7,13.2-1.6,14.1"
				/>
			<g>
				<polygon class="st2" points="779.3,76.3 778.4,75.1 784.3,70.7 779.5,65.1 780.6,64.1 786.5,70.9 				"/>
			</g>
		</g>
		<g>
			<path class="st1" d="M786,70.9c0,0,171,0,195.5,0c16.7,0,16.7,15.6,0,15.6c-21.2,0-178.2,0-194.9,0c-16.1,0-16.7,13.2-1.6,14.1"
				/>
			<g>
				<polygon class="st2" points="779.3,106 778.4,104.8 784.3,100.4 779.5,94.8 780.6,93.9 786.5,100.7 				"/>
			</g>
		</g>
		<g>
			<path class="st1" d="M786,100.7c0,0,171,0,195.5,0c16.7,0,16.7,15.6,0,15.6c-21.2,0-178.2,0-194.9,0c-16.1,0-16.7,13.2-1.6,14.1"
				/>
			<g>
				<polygon class="st2" points="779.3,135.8 778.4,134.6 784.3,130.2 779.5,124.6 780.6,123.6 786.5,130.4 				"/>
			</g>
		</g>
		<g>
			<path class="st1" d="M786,130.4c0,0,171,0,195.5,0c16.7,0,16.7,15.6,0,15.6c-21.2,0-178.2,0-194.9,0c-16.1,0-16.7,13.2-1.6,14.1"
				/>
			<g>
				<polygon class="st2" points="779.3,165.5 778.4,164.3 784.3,159.9 779.5,154.3 780.6,153.3 786.5,160.1 				"/>
			</g>
		</g>
		<g>
			<path class="st1" d="M786,160.1c0,0,171,0,195.5,0c16.7,0,16.7,15.6,0,15.6c-21.2,0-178.2,0-194.9,0c-16.1,0-16.7,13.2-1.6,14.1"
				/>
			<g>
				<polygon class="st2" points="779.3,195.2 778.4,194 784.3,189.6 779.5,184 780.6,183 786.5,189.8 				"/>
			</g>
		</g>
		<g>
			<path class="st1" d="M786,189.8c0,0,171,0,195.5,0c16.7,0,16.7,15.6,0,15.6c-21.2,0-178.2,0-194.9,0c-16.1,0-16.7,13.2-1.6,14.1"
				/>
			<g>
				<polygon class="st2" points="779.3,224.9 778.4,223.7 784.3,219.3 779.5,213.7 780.6,212.7 786.5,219.6 				"/>
			</g>
		</g>
		<g>
			<path class="st1" d="M786,219.6c0,0,171,0,195.5,0c16.7,0,16.7,15.6,0,15.6c-21.2,0-178.2,0-194.9,0c-16.1,0-16.7,13.2-1.6,14.1"
				/>
			<g>
				<polygon class="st2" points="779.3,254.7 778.4,253.5 784.3,249.1 779.5,243.5 780.6,242.5 786.5,249.3 				"/>
			</g>
		</g>
		<g>
			<path class="st1" d="M786,249.3c0,0,171,0,195.5,0c16.7,0,16.7,15.6,0,15.6c-21.2,0-178.2,0-194.9,0c-16.1,0-16.7,13.2-1.6,14.1"
				/>
			<g>
				<polygon class="st2" points="779.3,284.4 778.4,283.2 784.3,278.8 779.5,273.2 780.6,272.2 786.5,279 				"/>
			</g>
		</g>
		<g>
			<path class="st1" d="M786,279c0,0,171,0,195.5,0c16.7,0,16.7,15.6,0,15.6c-21.2,0-178.2,0-194.9,0c-16.1,0-16.7,13.2-1.6,14.1"/>
			<g>
				<polygon class="st2" points="779.3,314.1 778.4,312.9 784.3,308.5 779.5,302.9 780.6,301.9 786.5,308.7 				"/>
			</g>
		</g>
		<g>
			<path class="st1" d="M786,308.7c0,0,171,0,195.5,0c16.7,0,16.7,15.6,0,15.6c-21.2,0-178.2,0-194.9,0c-16.1,0-16.7,13.2-1.6,14.1"
				/>
			<g>
				<polygon class="st2" points="779.3,343.8 778.4,342.6 784.3,338.2 779.5,332.6 780.6,331.6 786.5,338.5 				"/>
			</g>
		</g>
		<g>
			<path class="st1" d="M786,338.5c0,0,171,0,195.5,0c16.7,0,16.7,15.6,0,15.6c-21.2,0-178.2,0-194.9,0c-16.1,0-16.7,13.2-1.6,14.1"
				/>
			<g>
				<polygon class="st2" points="779.3,373.6 778.4,372.4 784.3,367.9 779.5,362.3 780.6,361.4 786.5,368.2 				"/>
			</g>
		</g>
		<g>
			<path class="st1" d="M786,368.2c0,0,171,0,195.5,0c16.7,0,16.7,15.6,0,15.6c-21.2,0-178.2,0-194.9,0c-16.1,0-16.7,13.2-1.6,14.1"
				/>
			<g>
				<polygon class="st2" points="779.3,403.3 778.4,402.1 784.3,397.7 779.5,392.1 780.6,391.1 786.5,397.9 				"/>
			</g>
		</g>
		<g>
			<path class="st1" d="M786,397.9c0,0,171,0,195.5,0c16.7,0,16.7,15.6,0,15.6c-21.2,0-178.2,0-194.9,0c-16.1,0-16.7,13.2-1.6,14.1"
				/>
			<g>
				<polygon class="st2" points="779.3,433 778.4,431.8 784.3,427.4 779.5,421.8 780.6,420.8 786.5,427.6 				"/>
			</g>
		</g>
		<g>
			<path class="st1" d="M786,427.6c0,0,171,0,195.5,0c16.7,0,16.7,15.6,0,15.6c-21.2,0-178.2,0-194.9,0c-16.1,0-16.7,13.2-1.6,14.1"
				/>
			<g>
				<polygon class="st2" points="779.3,462.7 778.4,461.5 784.3,457.1 779.5,451.5 780.6,450.5 786.5,457.4 				"/>
			</g>
		</g>
	</g>
	<g>
		<line class="st1" x1="42" y1="458.1" x2="217.4" y2="458.1"/>
		<g>
			<polygon class="st2" points="212.4,464.2 211.4,463.1 216.8,458.1 211.4,453.1 212.4,452 219,458.1 			"/>
		</g>
	</g>
	<g>
		<line class="st1" x1="305" y1="458.1" x2="480.4" y2="458.1"/>
		<g>
			<polygon class="st2" points="475.4,464.2 474.4,463.1 479.8,458.1 474.4,453.1 475.4,452 482,458.1 			"/>
		</g>
	</g>
	<g>
		<line class="st1" x1="546" y1="458.1" x2="721.4" y2="458.1"/>
		<g>
			<polygon class="st2" points="716.4,464.2 715.4,463.1 720.8,458.1 715.4,453.1 716.4,452 723,458.1 			"/>
		</g>
	</g>
	<g>
		<line class="st1" x1="787" y1="458.1" x2="982.4" y2="458.1"/>
		<g>
			<polygon class="st2" points="977.4,464.2 976.4,463.1 981.8,458.1 976.4,453.1 977.4,452 984,458.1 			"/>
		</g>
	</g>
</g>
<script type="text/javascript">
	// <![CDATA[
	let display;
	document.onclick = function() {
		let linije = [...document.getElementsByClassName("st1"), ...document.getElementsByClassName("st2")];
		display = display == "initial" ? "none" : "initial";
		// console.log(display);
		for (let i = 0; i < linije.length; i++) {
			linije[i].style = "display: " + display
		}
	}
	// ]]>
</script>
</svg>
