<?xml version="1.0" encoding="utf-8"?>
<!-- Generator: Adobe Illustrator 22.1.0, SVG Export Plug-In . SVG Version: 6.00 Build 0)  -->
<svg version="1.1" xmlns="http://www.w3.org/2000/svg" xmlns:xlink="http://www.w3.org/1999/xlink" x="0px" y="0px"
	 viewBox="0 0 652.8 642" style="enable-background:new 0 0 652.8 642;" xml:space="preserve">
<style type="text/css">
	.st0{fill:none;stroke:#4D4D4D;stroke-width:10;stroke-miterlimit:10;}
	.st1{fill:none;stroke:#00CCDD;stroke-width:2.5;stroke-miterlimit:10;}
	.st2{fill:#00CCDD;}
	.st3{display:none;fill:#333333;}
	.st4{fill:none;stroke:#EFEFEF;stroke-miterlimit:10;transition:2s;}
	.st5{fill:none;stroke:#00CCDD;stroke-miterlimit:10;}
	.st6{fill:#EFEFEF;}
	.st7{display:none;fill:#1B1464;}
	.st8{fill:#FFCC00;}
	.st9{font-family:'Georgia';}
	.st10{font-size:12px;}
	.st11{fill:none;stroke:#FFCC00;stroke-miterlimit:10;}
	.st4:hover{fill:#233;}
</style>
<g id="Layer_3">
	<rect class="st7" width="1000.8" height="1095"/>
	<g>
		
		<rect x="11.3" y="10.5" class="st4" width="180.5" height="30"/>
		<rect x="11.2" y="51.5" class="st4" width="180.5" height="30"/>
		<rect x="31.3" y="101.5" class="st4" width="140.5" height="30"/>
		<rect x="148.3" y="375.5" class="st4" width="155.5" height="30"/>
		<rect x="156.3" y="251.5" class="st4" width="181" height="30"/>
		<rect x="136.3" y="291.5" class="st4" width="222" height="30"/>
		<rect x="466.1" y="565.5" class="st4" width="164.7" height="30.5"/>
		<polygon class="st4" points="161.7,181.5 101.5,181.5 41.3,181.5 28.3,166.5 41.3,151.5 101.5,151.5 161.7,151.5 175.2,166.5 		
			"/>
		<polygon class="st4" points="379.8,231.5 313.5,231.5 235.3,231.5 222.3,216.5 235.3,201.5 313.5,201.5 379.8,201.5 393.3,216.5 
					"/>
		<polyline class="st5" points="430.5,226 430.5,353 11.8,353 11.8,91 430.5,91 430.3,192 		"/>
		<polyline class="st11" points="137.8,496 137.8,627 640.2,627 640.3,365 447.8,365 		"/>
		<polyline class="st11" points="430.8,365 137.8,365 137.8,483 		"/>
		<g>
			<g>
				<line class="st4" x1="101.5" y1="40.5" x2="101.5" y2="50.4"/>
				<g>
					<polygon class="st6" points="97.4,47.1 98.1,46.4 101.5,50 104.9,46.4 105.6,47.1 101.5,51.5 					"/>
				</g>
			</g>
		</g>
		<g>
			<g>
				<line class="st4" x1="101.3" y1="131.5" x2="101.3" y2="150.9"/>
				<g>
					<polygon class="st6" points="97.2,147.6 97.9,146.9 101.2,150.5 104.6,146.9 105.3,147.6 101.2,152 					"/>
				</g>
			</g>
		</g>
		<g>
			<g>
				<line class="st4" x1="186.3" y1="281.5" x2="186.3" y2="289.9"/>
				<g>
					<polygon class="st6" points="182.2,286.6 182.9,285.9 186.2,289.5 189.6,285.9 190.3,286.6 186.2,291 					"/>
				</g>
			</g>
		</g>
		<g>
			<g>
				<line class="st4" x1="101.3" y1="181.5" x2="101.3" y2="601.9"/>
				<g>
					<polygon class="st6" points="97.2,598.6 97.9,597.9 101.2,601.5 104.6,597.9 105.3,598.6 101.2,603 					"/>
				</g>
			</g>
		</g>
		<g>
			<g>
				<line class="st4" x1="101.3" y1="81" x2="101.3" y2="99.9"/>
				<g>
					<polygon class="st6" points="97.2,96.6 97.9,95.9 101.2,99.5 104.6,95.9 105.3,96.6 101.2,101 					"/>
				</g>
			</g>
		</g>
		<g>
			<g>
				<polyline class="st4" points="175.2,166.5 313.3,166.5 313.3,171 313.3,200.9 				"/>
				<g>
					<polygon class="st6" points="309.2,197.6 309.9,196.9 313.2,200.5 316.6,196.9 317.3,197.6 313.2,202 					"/>
				</g>
			</g>
		</g>
		<g>
			<g>
				<polyline class="st4" points="393.3,215.5 439.3,215.5 439.3,390.5 305.3,390.5 				"/>
				<g>
					<polygon class="st6" points="308.6,386.4 309.3,387.1 305.7,390.5 309.3,393.9 308.6,394.6 304.3,390.5 					"/>
				</g>
			</g>
		</g>
		<g>
			<g>
				<polyline class="st4" points="223.3,215.5 186.2,215.5 186.2,220 186.2,249.9 				"/>
				<g>
					<polygon class="st6" points="182.2,246.6 182.9,245.9 186.2,249.5 189.6,245.9 190.3,246.6 186.2,251 					"/>
				</g>
			</g>
		</g>
		
		<g>
			<g>
				<polyline class="st4" points="186.3,322 186.3,334.5 122.3,334.5 122.3,184.1 				"/>
				<g>
					<polygon class="st6" points="126.3,187.4 125.6,188.1 122.3,184.5 118.9,188.1 118.2,187.4 122.3,183 					"/>
				</g>
			</g>
		</g>
		<polyline class="st4" points="180.3,457 180.3,490.5 122.3,490.5 122.3,334 		"/>
		<rect x="241.3" y="525.5" class="st4" width="181" height="30"/>
		<rect x="238.3" y="565.5" class="st4" width="222" height="30"/>
		<polygon class="st4" points="285.8,455.5 225.5,455.5 165.3,455.5 152.3,440.5 165.3,425.5 225.5,425.5 285.8,425.5 299.3,440.5 
					"/>
		<polygon class="st4" points="464.8,505.5 398.5,505.5 320.3,505.5 307.3,490.5 320.3,475.5 398.5,475.5 464.8,475.5 478.3,490.5 
					"/>
		<g>
			<g>
				<line class="st4" x1="225.3" y1="405.5" x2="225.3" y2="424.9"/>
				<g>
					<polygon class="st6" points="221.2,421.6 221.9,420.9 225.2,424.5 228.6,420.9 229.3,421.6 225.2,426 					"/>
				</g>
			</g>
		</g>
		<g>
			<g>
				<line class="st4" x1="271.3" y1="555.5" x2="271.3" y2="563.9"/>
				<g>
					<polygon class="st6" points="267.2,560.6 267.9,559.9 271.2,563.5 274.6,559.9 275.3,560.6 271.2,565 					"/>
				</g>
			</g>
		</g>
		<rect x="466.3" y="525.5" class="st4" width="164.5" height="30"/>
		<g>
			<g>
				<line class="st4" x1="515.3" y1="555.5" x2="515.3" y2="563.9"/>
				<g>
					<polygon class="st6" points="511.2,560.6 511.9,559.9 515.2,563.5 518.6,559.9 519.3,560.6 515.2,565 					"/>
				</g>
			</g>
		</g>
		<line class="st4" x1="271.3" y1="596" x2="271.3" y2="608"/>
		<g>
			<g>
				<polyline class="st4" points="299.8,440.5 398.3,440.5 398.3,445 398.3,474.9 				"/>
				<g>
					<polygon class="st6" points="394.2,471.6 394.9,470.9 398.2,474.5 401.6,470.9 402.3,471.6 398.2,476 					"/>
				</g>
			</g>
		</g>
		<g>
			<g>
				<polyline class="st4" points="308.3,489.5 271.3,489.5 271.3,523.9 				"/>
				<g>
					<polygon class="st6" points="267.2,520.6 267.9,519.9 271.2,523.5 274.6,519.9 275.3,520.6 271.2,525 					"/>
				</g>
			</g>
		</g>
		<g>
			<g>
				<polyline class="st4" points="478.3,489.5 515.3,489.5 515.3,523.9 				"/>
				<g>
					<polygon class="st6" points="511.2,520.6 511.9,519.9 515.2,523.5 518.6,519.9 519.3,520.6 515.2,525 					"/>
				</g>
			</g>
		</g>
		
		<g>
			<g>
				<polyline class="st4" points="532.3,596 532.3,608.5 224.3,608.5 224.3,458.1 				"/>
				<g>
					<polygon class="st6" points="228.3,461.4 227.6,462.1 224.3,458.5 220.9,462.1 220.2,461.4 224.3,457 					"/>
				</g>
			</g>
		</g>
		<g>
			<circle class="st4" cx="101.3" cy="615.5" r="11.3"/>
			<line class="st4" x1="93.4" y1="607.6" x2="109.1" y2="623.4"/>
			<line class="st4" x1="93.4" y1="623.4" x2="109.1" y2="607.6"/>
		</g>
		<text transform="matrix(1 0 0 1 288.814 161.1006)" class="st2 st9 st10">idući</text>
		<text transform="matrix(1 0 0 1 71.5034 251.1006)" class="st2 st9 st10">kraj</text>
		<text transform="matrix(1 0 0 1 185.4819 211.1006)" class="st2 st9 st10">da</text>
		<text transform="matrix(1 0 0 1 416.5054 211.1006)" class="st2 st9 st10">ne</text>
		<text transform="matrix(1 0 0 1 502.5054 485.1006)" class="st2 st9 st10">ne</text>
		<text transform="matrix(1 0 0 1 186.4219 444)"><tspan x="0" y="0" class="st8 st9 st10">j</tspan><tspan x="3.5" y="0" class="st6 st9 st10">&lt; broj </tspan><tspan x="38.6" y="0" class="st8 st9 st10">slogovi</tspan><tspan x="75.8" y="0" class="st6 st9 st10"> </tspan></text>
		<text transform="matrix(1 0 0 1 250.1943 545)"><tspan x="0" y="0" class="st6 st9 st10">ispiši </tspan><tspan x="30.7" y="0" class="st8 st9 st10">slogovi</tspan><tspan x="67.8" y="0" class="st6 st9 st10">[j]</tspan><tspan x="80.3" y="0" class="st8 st9 st10"> </tspan><tspan x="83.2" y="0" class="st6 st9 st10">na (</tspan><tspan x="103.7" y="0" class="st8 st9 st10">y</tspan><tspan x="109.6" y="0" class="st6 st9 st10">, </tspan><tspan x="115.8" y="0" class="st8 st9 st10">d_retka</tspan><tspan x="157.7" y="0" class="st6 st9 st10">) </tspan></text>
		<text transform="matrix(1 0 0 1 491.8516 545)"><tspan x="0" y="0" class="st6 st9 st10">ispiši “-”</tspan><tspan x="45" y="0" class="st8 st9 st10"> </tspan><tspan x="47.9" y="0" class="st6 st9 st10">na (</tspan><tspan x="68.4" y="0" class="st8 st9 st10">y</tspan><tspan x="74.3" y="0" class="st6 st9 st10">, </tspan><tspan x="80.5" y="0" class="st8 st9 st10">d_retka</tspan><tspan x="122.4" y="0" class="st6 st9 st10">) </tspan></text>
		<text transform="matrix(1 0 0 1 249.3389 585)"><tspan x="0" y="0" class="st8 st9 st10">d_retka</tspan><tspan x="41.9" y="0" class="st6 st9 st10"> = </tspan><tspan x="55.4" y="0" class="st8 st9 st10">d_retka</tspan><tspan x="97.4" y="0" class="st6 st9 st10"> + širina(</tspan><tspan x="145.7" y="0" class="st8 st9 st10">slogovi</tspan><tspan x="182.8" y="0" class="st6 st9 st10">[i])</tspan></text>
		<text transform="matrix(1 0 0 1 325.5908 494)"><tspan x="0" y="0" class="st6 st9 st10">stane li </tspan><tspan x="41" y="0" class="st8 st9 st10">slogovi</tspan><tspan x="78.1" y="0" class="st6 st9 st10">[j] u redak </tspan></text>
		<text transform="matrix(1 0 0 1 70.9268 30)"><tspan x="0" y="0" class="st8 st9 st10">tekst</tspan><tspan x="25.7" y="0" class="st6 st9 st10"> = “...” </tspan></text>
		<text transform="matrix(1 0 0 1 44.7441 71)"><tspan x="0" y="0" class="st8 st9 st10">riječi</tspan><tspan x="26.7" y="0" class="st6 st9 st10"> = </tspan><tspan x="40.2" y="0" class="st8 st9 st10">tekst</tspan><tspan x="65.9" y="0" class="st6 st9 st10">.split(” “)</tspan></text>
		<text transform="matrix(1 0 0 1 52.4434 121)"><tspan x="0" y="0" class="st8 st9 st10">y</tspan><tspan x="5.9" y="0" class="st6 st9 st10"> = 0, </tspan><tspan x="32.9" y="0" class="st8 st9 st10">d_retka</tspan><tspan x="74.8" y="0" class="st6 st9 st10"> = 0 </tspan></text>
		<text transform="matrix(1 0 0 1 66.1895 170)"><tspan x="0" y="0" class="st8 st9 st10">i</tspan><tspan x="3.5" y="0" class="st6 st9 st10"> &lt; broj </tspan><tspan x="41.5" y="0" class="st8 st9 st10">riječi</tspan><tspan x="68.2" y="0" class="st6 st9 st10"> </tspan></text>
		<text transform="matrix(1 0 0 1 155.1143 394)"><tspan x="0" y="0" class="st8 st9 st10">slogovi</tspan><tspan x="37.1" y="0" class="st6 st9 st10"> = </tspan><tspan x="50.6" y="0" class="st8 st9 st10">riječi[i]</tspan><tspan x="89.9" y="0" class="st6 st9 st10">.</tspan><tspan x="93.1" y="0" class="st2 st9 st10">razlomi()</tspan><tspan x="142.4" y="0" class="st6 st9 st10"> </tspan></text>
		<text transform="matrix(1 0 0 1 171.4092 271)"><tspan x="0" y="0" class="st6 st9 st10">ispiši </tspan><tspan x="30.7" y="0" class="st8 st9 st10">riječi</tspan><tspan x="57.4" y="0" class="st6 st9 st10">[i]</tspan><tspan x="69.9" y="0" class="st8 st9 st10"> </tspan><tspan x="72.8" y="0" class="st6 st9 st10">na (</tspan><tspan x="93.3" y="0" class="st8 st9 st10">y</tspan><tspan x="99.2" y="0" class="st6 st9 st10">, </tspan><tspan x="105.3" y="0" class="st8 st9 st10">d_retka</tspan><tspan x="147.3" y="0" class="st6 st9 st10">) </tspan></text>
		<text transform="matrix(1 0 0 1 154.5596 311)"><tspan x="0" y="0" class="st8 st9 st10">d_retka</tspan><tspan x="41.9" y="0" class="st6 st9 st10"> = </tspan><tspan x="55.4" y="0" class="st8 st9 st10">d_retka</tspan><tspan x="97.4" y="0" class="st6 st9 st10"> + širina(</tspan><tspan x="145.7" y="0" class="st8 st9 st10">riječi</tspan><tspan x="172.4" y="0" class="st6 st9 st10">[i])</tspan></text>
		<text transform="matrix(1 0 0 1 475.75 577)"><tspan x="0" y="0" class="st8 st9 st10">y</tspan><tspan x="5.9" y="0" class="st6 st9 st10"> = </tspan><tspan x="19.4" y="0" class="st8 st9 st10">y</tspan><tspan x="25.3" y="0" class="st6 st9 st10"> + prored, </tspan><tspan x="80.8" y="0" class="st8 st9 st10">d_retka</tspan><tspan x="122.7" y="0" class="st6 st9 st10"> = 0,</tspan><tspan x="0" y="15" class="st8 st9 st10">i</tspan><tspan x="3.5" y="15" class="st6 st9 st10"> = </tspan><tspan x="17" y="15" class="st8 st9 st10">i</tspan><tspan x="20.5" y="15" class="st6 st9 st10"> - 1 </tspan></text>
		<text transform="matrix(1 0 0 1 245.8057 220)"><tspan x="0" y="0" class="st6 st9 st10">stane li </tspan><tspan x="41" y="0" class="st8 st9 st10">riječi</tspan><tspan x="67.7" y="0" class="st6 st9 st10">[i] u redak </tspan></text>
		<text transform="matrix(1 0 0 1 373.814 435.1006)" class="st2 st9 st10">idući</text>
		<text transform="matrix(1 0 0 1 148.5034 485.1006)" class="st2 st9 st10">kraj</text>
		<text transform="matrix(1 0 0 1 270.4819 485.1006)" class="st2 st9 st10">da</text>
	</g>
</g>
<script type="text/javascript">
	// <![CDATA[
	window.onload = function() {
		const svg = document.getElementsByTagName("svg")[0];
		const x = svg.viewBox.baseVal.x;
		let y = svg.viewBox.baseVal.y;
		const w = svg.viewBox.baseVal.width;
		const h = svg.viewBox.baseVal.height;
		window.addEventListener("wheel", function(e) {
			y = y + e.deltaY / 10;
			y = y < 0 ? 0 : y;
			y = y > h / 1.5 ? h / 1.5 : y;
			svg.setAttribute("viewBox", `${x} ${y} ${w} ${h}`);
		});
	}
	// ]]>
</script>
</svg>
