<?xml version="1.0" encoding="utf-8"?>
<!-- Generator: Adobe Illustrator 22.1.0, SVG Export Plug-In . SVG Version: 6.00 Build 0)  -->
<svg version="1.1" xmlns="http://www.w3.org/2000/svg" xmlns:xlink="http://www.w3.org/1999/xlink" x="0px" y="0px"
	 viewBox="0 0 503 406" style="enable-background:new 0 0 503 406;" xml:space="preserve">
<style type="text/css">
	.st0{fill:none;stroke:#4D4D4D;stroke-width:10;stroke-miterlimit:10;}
	.st1{fill:none;stroke:#00CCDD;stroke-width:2.5;stroke-miterlimit:10;}
	.st2{fill:#00CCDD;}
	.st3{display:none;fill:#333333;}
	.st4{fill:#FFCC00;}
	.st5{font-family:'Georgia';}
	.st6{font-size:12px;}
	.st7{fill:#EFEFEF;}
	.st8{fill:none;stroke:#EFEFEF;stroke-miterlimit:10;transition:2s;}
	.st9{fill:none;stroke:#00CCDD;stroke-miterlimit:10;}
	.st10{fill:#333333;}
	.st8:hover{fill:#233;}
</style>
<g id="Layer_1">
</g>
<g id="Layer_2">
	<rect x="-10.8" class="st3" width="513.8" height="406"/>
	<g>
		<rect x="7.5" y="15.5" class="st8" width="180.5" height="30"/>
		<rect x="7.5" y="56.5" class="st8" width="180.5" height="30"/>
		<rect x="27.5" y="106.5" class="st8" width="140.5" height="30"/>
		<rect x="152.5" y="256.5" class="st8" width="181" height="30"/>
		<rect x="132.5" y="296.5" class="st8" width="222" height="30"/>
		<rect x="377.3" y="256.5" class="st8" width="98.8" height="60.2"/>
		<polygon class="st8" points="158,186.5 97.7,186.5 37.5,186.5 24.5,171.5 37.5,156.5 97.7,156.5 158,156.5 171.5,171.5 		"/>
		<polygon class="st8" points="376,236.5 309.8,236.5 231.5,236.5 218.5,221.5 231.5,206.5 309.8,206.5 376,206.5 389.5,221.5 		"/>
		<rect x="8" y="96" class="st9" width="485" height="258.1"/>
		<g>
			<g>
				<line class="st8" x1="97.8" y1="45.5" x2="97.8" y2="55.4"/>
				<g>
					<polygon class="st7" points="93.7,52.1 94.4,51.4 97.7,55 101.1,51.4 101.8,52.1 97.7,56.5 					"/>
				</g>
			</g>
		</g>
		<g>
			<g>
				<line class="st8" x1="97.5" y1="136.5" x2="97.5" y2="155.9"/>
				<g>
					<polygon class="st7" points="93.4,152.6 94.1,151.9 97.5,155.5 100.9,151.9 101.6,152.6 97.5,157 					"/>
				</g>
			</g>
		</g>
		<g>
			<g>
				<line class="st8" x1="182.5" y1="286.5" x2="182.5" y2="294.9"/>
				<g>
					<polygon class="st7" points="178.4,291.6 179.1,290.9 182.5,294.5 185.9,290.9 186.6,291.6 182.5,296 					"/>
				</g>
			</g>
		</g>
		<line class="st8" x1="182.5" y1="327" x2="182.5" y2="339"/>
		<g>
			<g>
				<line class="st8" x1="97.5" y1="186.5" x2="97.5" y2="374.9"/>
				<g>
					<polygon class="st7" points="93.4,371.6 94.1,370.9 97.5,374.5 100.9,370.9 101.6,371.6 97.5,376 					"/>
				</g>
			</g>
		</g>
		<g>
			<g>
				<line class="st8" x1="97.5" y1="86" x2="97.5" y2="104.9"/>
				<g>
					<polygon class="st7" points="93.4,101.6 94.1,100.9 97.5,104.5 100.9,100.9 101.6,101.6 97.5,106 					"/>
				</g>
			</g>
		</g>
		<g>
			<g>
				<polyline class="st8" points="171.5,171.5 309.5,171.5 309.5,176 309.5,205.9 				"/>
				<g>
					<polygon class="st7" points="305.4,202.6 306.1,201.9 309.5,205.5 312.9,201.9 313.6,202.6 309.5,207 					"/>
				</g>
			</g>
		</g>
		<g>
			<g>
				<polyline class="st8" points="389.5,220.5 426.5,220.5 426.5,225 426.5,254.9 				"/>
				<g>
					<polygon class="st7" points="422.4,251.6 423.1,250.9 426.5,254.5 429.9,250.9 430.6,251.6 426.5,256 					"/>
				</g>
			</g>
		</g>
		<g>
			<g>
				<polyline class="st8" points="219.5,220.5 182.5,220.5 182.5,225 182.5,254.9 				"/>
				<g>
					<polygon class="st7" points="178.4,251.6 179.1,250.9 182.5,254.5 185.9,250.9 186.6,251.6 182.5,256 					"/>
				</g>
			</g>
		</g>
		
		<g>
			<g>
				<polyline class="st8" points="426.5,318 426.5,339.5 118.5,339.5 118.5,189.1 				"/>
				<g>
					<polygon class="st7" points="122.6,192.4 121.9,193.1 118.5,189.5 115.1,193.1 114.4,192.4 118.5,188 					"/>
				</g>
			</g>
		</g>
		<g>
			<circle class="st8" cx="97.5" cy="388.5" r="11.3"/>
			<line class="st8" x1="89.6" y1="380.6" x2="105.4" y2="396.4"/>
			<line class="st8" x1="89.6" y1="396.4" x2="105.4" y2="380.6"/>
		</g>
	</g>
		<text transform="matrix(1 0 0 1 67.1768 36)"><tspan x="0" y="0" class="st4 st5 st6">tekst</tspan><tspan x="25.7" y="0" class="st7 st5 st6"> = “...” </tspan></text>
		<text transform="matrix(1 0 0 1 40.9941 77)"><tspan x="0" y="0" class="st4 st5 st6">riječi</tspan><tspan x="26.7" y="0" class="st7 st5 st6"> = </tspan><tspan x="40.2" y="0" class="st4 st5 st6">tekst</tspan><tspan x="65.9" y="0" class="st7 st5 st6">.split(” “)</tspan></text>
		<text transform="matrix(1 0 0 1 48.6934 127)"><tspan x="0" y="0" class="st4 st5 st6">y</tspan><tspan x="5.9" y="0" class="st7 st5 st6"> = 0, </tspan><tspan x="32.9" y="0" class="st4 st5 st6">d_retka</tspan><tspan x="74.8" y="0" class="st7 st5 st6"> = 0 </tspan></text>
		<text transform="matrix(1 0 0 1 62.4395 176)"><tspan x="0" y="0" class="st4 st5 st6">i</tspan><tspan x="3.5" y="0" class="st7 st5 st6"> &lt; broj </tspan><tspan x="41.5" y="0" class="st4 st5 st6">riječi</tspan><tspan x="68.2" y="0" class="st7 st5 st6"> </tspan></text>
		<text transform="matrix(1 0 0 1 167.6592 277)"><tspan x="0" y="0" class="st7 st5 st6">ispiši </tspan><tspan x="30.7" y="0" class="st4 st5 st6">riječi</tspan><tspan x="57.4" y="0" class="st7 st5 st6">[i]</tspan><tspan x="69.9" y="0" class="st4 st5 st6"> </tspan><tspan x="72.8" y="0" class="st7 st5 st6">na (</tspan><tspan x="93.3" y="0" class="st4 st5 st6">y</tspan><tspan x="99.2" y="0" class="st7 st5 st6">, </tspan><tspan x="105.3" y="0" class="st4 st5 st6">d_retka</tspan><tspan x="147.3" y="0" class="st7 st5 st6">) </tspan></text>
		<text transform="matrix(1 0 0 1 150.8096 317)"><tspan x="0" y="0" class="st4 st5 st6">d_retka</tspan><tspan x="41.9" y="0" class="st7 st5 st6"> = </tspan><tspan x="55.4" y="0" class="st4 st5 st6">d_retka</tspan><tspan x="97.4" y="0" class="st7 st5 st6"> + širina(</tspan><tspan x="145.7" y="0" class="st4 st5 st6">riječi</tspan><tspan x="172.4" y="0" class="st7 st5 st6">[i])</tspan></text>
		<text transform="matrix(1 0 0 1 387 277)"><tspan x="0" y="0" class="st4 st5 st6">y</tspan><tspan x="5.9" y="0" class="st7 st5 st6"> = </tspan><tspan x="19.4" y="0" class="st4 st5 st6">y</tspan><tspan x="25.3" y="0" class="st7 st5 st6"> + prored, </tspan><tspan x="0" y="15" class="st4 st5 st6">d_retka</tspan><tspan x="41.9" y="15" class="st7 st5 st6"> = 0,</tspan><tspan x="0" y="30" class="st4 st5 st6">i</tspan><tspan x="3.5" y="30" class="st7 st5 st6"> = </tspan><tspan x="17" y="30" class="st4 st5 st6">i</tspan><tspan x="20.5" y="30" class="st7 st5 st6"> - 1 </tspan></text>
		<text transform="matrix(1 0 0 1 242.0557 226)"><tspan x="0" y="0" class="st7 st5 st6">stane li </tspan><tspan x="41" y="0" class="st4 st5 st6">riječi</tspan><tspan x="67.7" y="0" class="st7 st5 st6">[i] u redak </tspan></text>
		<text transform="matrix(1 0 0 1 285.064 166.1006)" class="st2 st5 st6">idući</text>
		<text transform="matrix(1 0 0 1 67.7534 256.1006)" class="st2 st5 st6">kraj</text>
		<text transform="matrix(1 0 0 1 181.7319 216.1006)" class="st2 st5 st6">da</text>
		<text transform="matrix(1 0 0 1 412.7554 216.1006)" class="st2 st5 st6">ne</text>
</g>
<script type="text/javascript">
	// <![CDATA[
	window.onload = function() {
		const svg = document.getElementsByTagName("svg")[0];
		const x = svg.viewBox.baseVal.x;
		let y = svg.viewBox.baseVal.y;
		const w = svg.viewBox.baseVal.width;
		const h = svg.viewBox.baseVal.height;
		window.addEventListener("wheel", function(e) {
			y = y + e.deltaY / 10;
			y = y < 0 ? 0 : y;
			y = y > h / 1.5 ? h / 1.5 : y;
			svg.setAttribute("viewBox", `${x} ${y} ${w} ${h}`);
		});
	}
	// ]]>
</script>
</svg>
